G04 #@! TF.FileFunction,Soldermask,Bot*
%FSLAX46Y46*%
G04 Gerber Fmt 4.6, Leading zero omitted, Abs format (unit mm)*
G04 Created by KiCad (PCBNEW 4.0.0-rc1-stable) date 01.11.2015 14:42:16*
%MOMM*%
G01*
G04 APERTURE LIST*
%ADD10C,0.100000*%
%ADD11C,0.150000*%
%ADD12R,1.900000X1.700000*%
%ADD13R,1.700000X1.900000*%
%ADD14R,2.127200X2.432000*%
%ADD15O,2.127200X2.432000*%
%ADD16R,2.127200X2.127200*%
%ADD17O,2.127200X2.127200*%
%ADD18C,1.924000*%
%ADD19C,3.100020*%
%ADD20R,1.200000X1.150000*%
%ADD21R,1.150000X1.200000*%
%ADD22R,1.400000X1.650000*%
%ADD23R,1.650000X1.400000*%
%ADD24C,5.400000*%
G04 APERTURE END LIST*
D10*
D11*
X137420000Y-107950000D02*
X58420000Y-107950000D01*
X137420000Y-72950000D02*
X137420000Y-107950000D01*
X58420000Y-72950000D02*
X137420000Y-72950000D01*
X58420000Y-107950000D02*
X58420000Y-72950000D01*
D12*
X76120000Y-99060000D03*
X78820000Y-99060000D03*
D13*
X83185000Y-101680000D03*
X83185000Y-98980000D03*
D14*
X92710000Y-102870000D03*
D15*
X95250000Y-102870000D03*
X97790000Y-102870000D03*
X100330000Y-102870000D03*
D14*
X124460000Y-88900000D03*
D15*
X127000000Y-88900000D03*
X129540000Y-88900000D03*
D14*
X124460000Y-85090000D03*
D15*
X127000000Y-85090000D03*
X129540000Y-85090000D03*
D14*
X124460000Y-81280000D03*
D15*
X127000000Y-81280000D03*
X129540000Y-81280000D03*
D14*
X124460000Y-77470000D03*
D15*
X127000000Y-77470000D03*
X129540000Y-77470000D03*
D16*
X81915000Y-88265000D03*
D17*
X79375000Y-88265000D03*
X81915000Y-85725000D03*
X79375000Y-85725000D03*
X81915000Y-83185000D03*
X79375000Y-83185000D03*
X81915000Y-80645000D03*
X79375000Y-80645000D03*
X81915000Y-78105000D03*
X79375000Y-78105000D03*
D18*
X72380000Y-96520000D03*
X72380000Y-99060000D03*
X70381020Y-99060000D03*
X70381020Y-96520000D03*
D19*
X67681000Y-91790520D03*
X67681000Y-103789480D03*
D10*
G36*
X112301509Y-86475174D02*
X110605174Y-88171509D01*
X106433881Y-84000216D01*
X108130216Y-82303881D01*
X112301509Y-86475174D01*
X112301509Y-86475174D01*
G37*
G36*
X105656119Y-79829784D02*
X103959784Y-81526119D01*
X99788491Y-77354826D01*
X101484826Y-75658491D01*
X105656119Y-79829784D01*
X105656119Y-79829784D01*
G37*
D20*
X129425000Y-79375000D03*
X130925000Y-79375000D03*
X129425000Y-83185000D03*
X130925000Y-83185000D03*
X129425000Y-86995000D03*
X130925000Y-86995000D03*
X129425000Y-91440000D03*
X130925000Y-91440000D03*
D21*
X99695000Y-82792000D03*
X99695000Y-81292000D03*
D22*
X72660000Y-101600000D03*
X70660000Y-101600000D03*
D21*
X78820000Y-102120000D03*
X78820000Y-103620000D03*
D23*
X85725000Y-99330000D03*
X85725000Y-101330000D03*
D21*
X88265000Y-99580000D03*
X88265000Y-101080000D03*
D24*
X62230000Y-76835000D03*
X133985000Y-76200000D03*
X133985000Y-104140000D03*
X87630000Y-93345000D03*
M02*
