G04 #@! TF.FileFunction,Soldermask,Top*
%FSLAX46Y46*%
G04 Gerber Fmt 4.6, Leading zero omitted, Abs format (unit mm)*
G04 Created by KiCad (PCBNEW 4.0.0-rc1-stable) date 01.11.2015 14:42:16*
%MOMM*%
G01*
G04 APERTURE LIST*
%ADD10C,0.100000*%
%ADD11C,0.150000*%
%ADD12R,1.598880X1.598880*%
%ADD13R,2.127200X2.432000*%
%ADD14O,2.127200X2.432000*%
%ADD15R,2.127200X2.127200*%
%ADD16O,2.127200X2.127200*%
%ADD17C,1.924000*%
%ADD18C,3.100020*%
%ADD19R,1.800000X1.450000*%
%ADD20R,2.432000X4.057600*%
%ADD21R,2.432000X1.416000*%
%ADD22R,1.150000X1.200000*%
%ADD23R,1.200000X1.150000*%
%ADD24R,0.900000X1.300000*%
%ADD25R,1.300000X0.900000*%
%ADD26C,5.400000*%
G04 APERTURE END LIST*
D10*
D11*
X137420000Y-107950000D02*
X58420000Y-107950000D01*
X137420000Y-72950000D02*
X137420000Y-107950000D01*
X58420000Y-72950000D02*
X137420000Y-72950000D01*
X58420000Y-107950000D02*
X58420000Y-72950000D01*
D10*
G36*
X105086689Y-85667779D02*
X105546308Y-86127398D01*
X104344227Y-87329479D01*
X103884608Y-86869860D01*
X105086689Y-85667779D01*
X105086689Y-85667779D01*
G37*
G36*
X104733136Y-85314226D02*
X105192755Y-85773845D01*
X103990674Y-86975926D01*
X103531055Y-86516307D01*
X104733136Y-85314226D01*
X104733136Y-85314226D01*
G37*
G36*
X104379582Y-84960672D02*
X104839201Y-85420291D01*
X103637120Y-86622372D01*
X103177501Y-86162753D01*
X104379582Y-84960672D01*
X104379582Y-84960672D01*
G37*
G36*
X104026029Y-84607119D02*
X104485648Y-85066738D01*
X103283567Y-86268819D01*
X102823948Y-85809200D01*
X104026029Y-84607119D01*
X104026029Y-84607119D01*
G37*
G36*
X103672476Y-84253566D02*
X104132095Y-84713185D01*
X102930014Y-85915266D01*
X102470395Y-85455647D01*
X103672476Y-84253566D01*
X103672476Y-84253566D01*
G37*
G36*
X103318922Y-83900012D02*
X103778541Y-84359631D01*
X102576460Y-85561712D01*
X102116841Y-85102093D01*
X103318922Y-83900012D01*
X103318922Y-83900012D01*
G37*
G36*
X102965369Y-83546459D02*
X103424988Y-84006078D01*
X102222907Y-85208159D01*
X101763288Y-84748540D01*
X102965369Y-83546459D01*
X102965369Y-83546459D01*
G37*
G36*
X102611815Y-83192905D02*
X103071434Y-83652524D01*
X101869353Y-84854605D01*
X101409734Y-84394986D01*
X102611815Y-83192905D01*
X102611815Y-83192905D01*
G37*
G36*
X102258262Y-82839352D02*
X102717881Y-83298971D01*
X101515800Y-84501052D01*
X101056181Y-84041433D01*
X102258262Y-82839352D01*
X102258262Y-82839352D01*
G37*
G36*
X101904709Y-82485799D02*
X102364328Y-82945418D01*
X101162247Y-84147499D01*
X100702628Y-83687880D01*
X101904709Y-82485799D01*
X101904709Y-82485799D01*
G37*
G36*
X101551155Y-82132245D02*
X102010774Y-82591864D01*
X100808693Y-83793945D01*
X100349074Y-83334326D01*
X101551155Y-82132245D01*
X101551155Y-82132245D01*
G37*
G36*
X101197602Y-81778692D02*
X101657221Y-82238311D01*
X100455140Y-83440392D01*
X99995521Y-82980773D01*
X101197602Y-81778692D01*
X101197602Y-81778692D01*
G37*
G36*
X97732779Y-82238311D02*
X98192398Y-81778692D01*
X99394479Y-82980773D01*
X98934860Y-83440392D01*
X97732779Y-82238311D01*
X97732779Y-82238311D01*
G37*
G36*
X97379226Y-82591864D02*
X97838845Y-82132245D01*
X99040926Y-83334326D01*
X98581307Y-83793945D01*
X97379226Y-82591864D01*
X97379226Y-82591864D01*
G37*
G36*
X97025672Y-82945418D02*
X97485291Y-82485799D01*
X98687372Y-83687880D01*
X98227753Y-84147499D01*
X97025672Y-82945418D01*
X97025672Y-82945418D01*
G37*
G36*
X96672119Y-83298971D02*
X97131738Y-82839352D01*
X98333819Y-84041433D01*
X97874200Y-84501052D01*
X96672119Y-83298971D01*
X96672119Y-83298971D01*
G37*
G36*
X96318566Y-83652524D02*
X96778185Y-83192905D01*
X97980266Y-84394986D01*
X97520647Y-84854605D01*
X96318566Y-83652524D01*
X96318566Y-83652524D01*
G37*
G36*
X95965012Y-84006078D02*
X96424631Y-83546459D01*
X97626712Y-84748540D01*
X97167093Y-85208159D01*
X95965012Y-84006078D01*
X95965012Y-84006078D01*
G37*
G36*
X95611459Y-84359631D02*
X96071078Y-83900012D01*
X97273159Y-85102093D01*
X96813540Y-85561712D01*
X95611459Y-84359631D01*
X95611459Y-84359631D01*
G37*
G36*
X95257905Y-84713185D02*
X95717524Y-84253566D01*
X96919605Y-85455647D01*
X96459986Y-85915266D01*
X95257905Y-84713185D01*
X95257905Y-84713185D01*
G37*
G36*
X94904352Y-85066738D02*
X95363971Y-84607119D01*
X96566052Y-85809200D01*
X96106433Y-86268819D01*
X94904352Y-85066738D01*
X94904352Y-85066738D01*
G37*
G36*
X94550799Y-85420291D02*
X95010418Y-84960672D01*
X96212499Y-86162753D01*
X95752880Y-86622372D01*
X94550799Y-85420291D01*
X94550799Y-85420291D01*
G37*
G36*
X94197245Y-85773845D02*
X94656864Y-85314226D01*
X95858945Y-86516307D01*
X95399326Y-86975926D01*
X94197245Y-85773845D01*
X94197245Y-85773845D01*
G37*
G36*
X93843692Y-86127398D02*
X94303311Y-85667779D01*
X95505392Y-86869860D01*
X95045773Y-87329479D01*
X93843692Y-86127398D01*
X93843692Y-86127398D01*
G37*
G36*
X95045773Y-87930521D02*
X95505392Y-88390140D01*
X94303311Y-89592221D01*
X93843692Y-89132602D01*
X95045773Y-87930521D01*
X95045773Y-87930521D01*
G37*
G36*
X95399326Y-88284074D02*
X95858945Y-88743693D01*
X94656864Y-89945774D01*
X94197245Y-89486155D01*
X95399326Y-88284074D01*
X95399326Y-88284074D01*
G37*
G36*
X95752880Y-88637628D02*
X96212499Y-89097247D01*
X95010418Y-90299328D01*
X94550799Y-89839709D01*
X95752880Y-88637628D01*
X95752880Y-88637628D01*
G37*
G36*
X96106433Y-88991181D02*
X96566052Y-89450800D01*
X95363971Y-90652881D01*
X94904352Y-90193262D01*
X96106433Y-88991181D01*
X96106433Y-88991181D01*
G37*
G36*
X96459986Y-89344734D02*
X96919605Y-89804353D01*
X95717524Y-91006434D01*
X95257905Y-90546815D01*
X96459986Y-89344734D01*
X96459986Y-89344734D01*
G37*
G36*
X96813540Y-89698288D02*
X97273159Y-90157907D01*
X96071078Y-91359988D01*
X95611459Y-90900369D01*
X96813540Y-89698288D01*
X96813540Y-89698288D01*
G37*
G36*
X97167093Y-90051841D02*
X97626712Y-90511460D01*
X96424631Y-91713541D01*
X95965012Y-91253922D01*
X97167093Y-90051841D01*
X97167093Y-90051841D01*
G37*
G36*
X97520647Y-90405395D02*
X97980266Y-90865014D01*
X96778185Y-92067095D01*
X96318566Y-91607476D01*
X97520647Y-90405395D01*
X97520647Y-90405395D01*
G37*
G36*
X97874200Y-90758948D02*
X98333819Y-91218567D01*
X97131738Y-92420648D01*
X96672119Y-91961029D01*
X97874200Y-90758948D01*
X97874200Y-90758948D01*
G37*
G36*
X98227753Y-91112501D02*
X98687372Y-91572120D01*
X97485291Y-92774201D01*
X97025672Y-92314582D01*
X98227753Y-91112501D01*
X98227753Y-91112501D01*
G37*
G36*
X98581307Y-91466055D02*
X99040926Y-91925674D01*
X97838845Y-93127755D01*
X97379226Y-92668136D01*
X98581307Y-91466055D01*
X98581307Y-91466055D01*
G37*
G36*
X98934860Y-91819608D02*
X99394479Y-92279227D01*
X98192398Y-93481308D01*
X97732779Y-93021689D01*
X98934860Y-91819608D01*
X98934860Y-91819608D01*
G37*
G36*
X99995521Y-92279227D02*
X100455140Y-91819608D01*
X101657221Y-93021689D01*
X101197602Y-93481308D01*
X99995521Y-92279227D01*
X99995521Y-92279227D01*
G37*
G36*
X100349074Y-91925674D02*
X100808693Y-91466055D01*
X102010774Y-92668136D01*
X101551155Y-93127755D01*
X100349074Y-91925674D01*
X100349074Y-91925674D01*
G37*
G36*
X100702628Y-91572120D02*
X101162247Y-91112501D01*
X102364328Y-92314582D01*
X101904709Y-92774201D01*
X100702628Y-91572120D01*
X100702628Y-91572120D01*
G37*
G36*
X101056181Y-91218567D02*
X101515800Y-90758948D01*
X102717881Y-91961029D01*
X102258262Y-92420648D01*
X101056181Y-91218567D01*
X101056181Y-91218567D01*
G37*
G36*
X101409734Y-90865014D02*
X101869353Y-90405395D01*
X103071434Y-91607476D01*
X102611815Y-92067095D01*
X101409734Y-90865014D01*
X101409734Y-90865014D01*
G37*
G36*
X101763288Y-90511460D02*
X102222907Y-90051841D01*
X103424988Y-91253922D01*
X102965369Y-91713541D01*
X101763288Y-90511460D01*
X101763288Y-90511460D01*
G37*
G36*
X102116841Y-90157907D02*
X102576460Y-89698288D01*
X103778541Y-90900369D01*
X103318922Y-91359988D01*
X102116841Y-90157907D01*
X102116841Y-90157907D01*
G37*
G36*
X102470395Y-89804353D02*
X102930014Y-89344734D01*
X104132095Y-90546815D01*
X103672476Y-91006434D01*
X102470395Y-89804353D01*
X102470395Y-89804353D01*
G37*
G36*
X102823948Y-89450800D02*
X103283567Y-88991181D01*
X104485648Y-90193262D01*
X104026029Y-90652881D01*
X102823948Y-89450800D01*
X102823948Y-89450800D01*
G37*
G36*
X103177501Y-89097247D02*
X103637120Y-88637628D01*
X104839201Y-89839709D01*
X104379582Y-90299328D01*
X103177501Y-89097247D01*
X103177501Y-89097247D01*
G37*
G36*
X103531055Y-88743693D02*
X103990674Y-88284074D01*
X105192755Y-89486155D01*
X104733136Y-89945774D01*
X103531055Y-88743693D01*
X103531055Y-88743693D01*
G37*
G36*
X103884608Y-88390140D02*
X104344227Y-87930521D01*
X105546308Y-89132602D01*
X105086689Y-89592221D01*
X103884608Y-88390140D01*
X103884608Y-88390140D01*
G37*
D12*
X130395980Y-93980000D03*
X132494020Y-93980000D03*
X120235980Y-93980000D03*
X122334020Y-93980000D03*
D13*
X92710000Y-102870000D03*
D14*
X95250000Y-102870000D03*
X97790000Y-102870000D03*
X100330000Y-102870000D03*
D13*
X124460000Y-88900000D03*
D14*
X127000000Y-88900000D03*
X129540000Y-88900000D03*
D13*
X124460000Y-85090000D03*
D14*
X127000000Y-85090000D03*
X129540000Y-85090000D03*
D13*
X124460000Y-81280000D03*
D14*
X127000000Y-81280000D03*
X129540000Y-81280000D03*
D13*
X124460000Y-77470000D03*
D14*
X127000000Y-77470000D03*
X129540000Y-77470000D03*
D15*
X81915000Y-88265000D03*
D16*
X79375000Y-88265000D03*
X81915000Y-85725000D03*
X79375000Y-85725000D03*
X81915000Y-83185000D03*
X79375000Y-83185000D03*
X81915000Y-80645000D03*
X79375000Y-80645000D03*
X81915000Y-78105000D03*
X79375000Y-78105000D03*
D17*
X72380000Y-96520000D03*
X72380000Y-99060000D03*
X70381020Y-99060000D03*
X70381020Y-96520000D03*
D18*
X67681000Y-91790520D03*
X67681000Y-103789480D03*
D19*
X118386000Y-87159000D03*
X114786000Y-87159000D03*
X118386000Y-88609000D03*
X114786000Y-88609000D03*
X130070000Y-97700000D03*
X126470000Y-97700000D03*
X130070000Y-99150000D03*
X126470000Y-99150000D03*
X123085000Y-102145000D03*
X119485000Y-102145000D03*
X123085000Y-103595000D03*
X119485000Y-103595000D03*
X116100000Y-97700000D03*
X112500000Y-97700000D03*
X116100000Y-99150000D03*
X112500000Y-99150000D03*
X109115000Y-102145000D03*
X105515000Y-102145000D03*
X109115000Y-103595000D03*
X105515000Y-103595000D03*
D20*
X76708000Y-101600000D03*
D21*
X83312000Y-101600000D03*
X83312000Y-99314000D03*
X83312000Y-103886000D03*
D12*
X88265000Y-101750980D03*
X88265000Y-103849020D03*
D22*
X97790000Y-95770000D03*
X97790000Y-97270000D03*
D23*
X107835000Y-88900000D03*
X109335000Y-88900000D03*
X108470000Y-82550000D03*
X109970000Y-82550000D03*
X107200000Y-80645000D03*
X108700000Y-80645000D03*
D22*
X120523000Y-87134000D03*
X120523000Y-88634000D03*
X91440000Y-85610000D03*
X91440000Y-87110000D03*
X132080000Y-97675000D03*
X132080000Y-99175000D03*
X125095000Y-102120000D03*
X125095000Y-103620000D03*
X118110000Y-97675000D03*
X118110000Y-99175000D03*
X111125000Y-102120000D03*
X111125000Y-103620000D03*
D24*
X109335000Y-87122000D03*
X107835000Y-87122000D03*
D10*
G36*
X107988147Y-93098909D02*
X107068909Y-94018147D01*
X106432513Y-93381751D01*
X107351751Y-92462513D01*
X107988147Y-93098909D01*
X107988147Y-93098909D01*
G37*
G36*
X106927487Y-92038249D02*
X106008249Y-92957487D01*
X105371853Y-92321091D01*
X106291091Y-91401853D01*
X106927487Y-92038249D01*
X106927487Y-92038249D01*
G37*
D25*
X133985000Y-97675000D03*
X133985000Y-99175000D03*
D24*
X113145000Y-93980000D03*
X111645000Y-93980000D03*
X116955000Y-92710000D03*
X115455000Y-92710000D03*
D25*
X127000000Y-102120000D03*
X127000000Y-103620000D03*
X120015000Y-97675000D03*
X120015000Y-99175000D03*
X113030000Y-102120000D03*
X113030000Y-103620000D03*
X85725000Y-99580000D03*
X85725000Y-101080000D03*
D26*
X62230000Y-76835000D03*
X133985000Y-76200000D03*
X133985000Y-104140000D03*
X87630000Y-93345000D03*
M02*
