G04 #@! TF.FileFunction,Paste,Bot*
%FSLAX46Y46*%
G04 Gerber Fmt 4.6, Leading zero omitted, Abs format (unit mm)*
G04 Created by KiCad (PCBNEW 4.0.0-rc1-stable) date 01.11.2015 14:42:16*
%MOMM*%
G01*
G04 APERTURE LIST*
%ADD10C,0.100000*%
%ADD11C,0.150000*%
%ADD12R,1.500000X1.300000*%
%ADD13R,1.300000X1.500000*%
%ADD14R,0.800000X0.750000*%
%ADD15R,0.750000X0.800000*%
%ADD16R,1.000000X1.250000*%
%ADD17R,1.250000X1.000000*%
G04 APERTURE END LIST*
D10*
D11*
X137420000Y-107950000D02*
X58420000Y-107950000D01*
X137420000Y-72950000D02*
X137420000Y-107950000D01*
X58420000Y-72950000D02*
X137420000Y-72950000D01*
X58420000Y-107950000D02*
X58420000Y-72950000D01*
D12*
X76120000Y-99060000D03*
X78820000Y-99060000D03*
D13*
X83185000Y-101680000D03*
X83185000Y-98980000D03*
D10*
G36*
X112018667Y-86475174D02*
X110605174Y-87888667D01*
X106716723Y-84000216D01*
X108130216Y-82586723D01*
X112018667Y-86475174D01*
X112018667Y-86475174D01*
G37*
G36*
X105373277Y-79829784D02*
X103959784Y-81243277D01*
X100071333Y-77354826D01*
X101484826Y-75941333D01*
X105373277Y-79829784D01*
X105373277Y-79829784D01*
G37*
D14*
X129425000Y-79375000D03*
X130925000Y-79375000D03*
X129425000Y-83185000D03*
X130925000Y-83185000D03*
X129425000Y-86995000D03*
X130925000Y-86995000D03*
X129425000Y-91440000D03*
X130925000Y-91440000D03*
D15*
X99695000Y-82792000D03*
X99695000Y-81292000D03*
D16*
X72660000Y-101600000D03*
X70660000Y-101600000D03*
D15*
X78820000Y-102120000D03*
X78820000Y-103620000D03*
D17*
X85725000Y-99330000D03*
X85725000Y-101330000D03*
D15*
X88265000Y-99580000D03*
X88265000Y-101080000D03*
M02*
