G04 #@! TF.FileFunction,Copper,L2,Bot,Signal*
%FSLAX46Y46*%
G04 Gerber Fmt 4.6, Leading zero omitted, Abs format (unit mm)*
G04 Created by KiCad (PCBNEW 4.0.0-rc1-stable) date 01.11.2015 14:42:16*
%MOMM*%
G01*
G04 APERTURE LIST*
%ADD10C,0.100000*%
%ADD11C,0.150000*%
%ADD12R,1.500000X1.300000*%
%ADD13R,1.300000X1.500000*%
%ADD14R,1.727200X2.032000*%
%ADD15O,1.727200X2.032000*%
%ADD16R,1.727200X1.727200*%
%ADD17O,1.727200X1.727200*%
%ADD18C,1.524000*%
%ADD19C,2.700020*%
%ADD20R,0.800000X0.750000*%
%ADD21R,0.750000X0.800000*%
%ADD22R,1.000000X1.250000*%
%ADD23R,1.250000X1.000000*%
%ADD24C,5.000000*%
%ADD25C,1.000000*%
%ADD26C,0.900000*%
%ADD27C,0.250000*%
%ADD28C,1.000000*%
%ADD29C,0.750000*%
%ADD30C,0.500000*%
%ADD31C,0.254000*%
G04 APERTURE END LIST*
D10*
D11*
X137420000Y-107950000D02*
X58420000Y-107950000D01*
X137420000Y-72950000D02*
X137420000Y-107950000D01*
X58420000Y-72950000D02*
X137420000Y-72950000D01*
X58420000Y-107950000D02*
X58420000Y-72950000D01*
D12*
X76120000Y-99060000D03*
X78820000Y-99060000D03*
D13*
X83185000Y-101680000D03*
X83185000Y-98980000D03*
D14*
X92710000Y-102870000D03*
D15*
X95250000Y-102870000D03*
X97790000Y-102870000D03*
X100330000Y-102870000D03*
D14*
X124460000Y-88900000D03*
D15*
X127000000Y-88900000D03*
X129540000Y-88900000D03*
D14*
X124460000Y-85090000D03*
D15*
X127000000Y-85090000D03*
X129540000Y-85090000D03*
D14*
X124460000Y-81280000D03*
D15*
X127000000Y-81280000D03*
X129540000Y-81280000D03*
D14*
X124460000Y-77470000D03*
D15*
X127000000Y-77470000D03*
X129540000Y-77470000D03*
D16*
X81915000Y-88265000D03*
D17*
X79375000Y-88265000D03*
X81915000Y-85725000D03*
X79375000Y-85725000D03*
X81915000Y-83185000D03*
X79375000Y-83185000D03*
X81915000Y-80645000D03*
X79375000Y-80645000D03*
X81915000Y-78105000D03*
X79375000Y-78105000D03*
D18*
X72380000Y-96520000D03*
X72380000Y-99060000D03*
X70381020Y-99060000D03*
X70381020Y-96520000D03*
D19*
X67681000Y-91790520D03*
X67681000Y-103789480D03*
D10*
G36*
X112018667Y-86475174D02*
X110605174Y-87888667D01*
X106716723Y-84000216D01*
X108130216Y-82586723D01*
X112018667Y-86475174D01*
X112018667Y-86475174D01*
G37*
G36*
X105373277Y-79829784D02*
X103959784Y-81243277D01*
X100071333Y-77354826D01*
X101484826Y-75941333D01*
X105373277Y-79829784D01*
X105373277Y-79829784D01*
G37*
D20*
X129425000Y-79375000D03*
X130925000Y-79375000D03*
X129425000Y-83185000D03*
X130925000Y-83185000D03*
X129425000Y-86995000D03*
X130925000Y-86995000D03*
X129425000Y-91440000D03*
X130925000Y-91440000D03*
D21*
X99695000Y-82792000D03*
X99695000Y-81292000D03*
D22*
X72660000Y-101600000D03*
X70660000Y-101600000D03*
D21*
X78820000Y-102120000D03*
X78820000Y-103620000D03*
D23*
X85725000Y-99330000D03*
X85725000Y-101330000D03*
D21*
X88265000Y-99580000D03*
X88265000Y-101080000D03*
D24*
X62230000Y-76835000D03*
X133985000Y-76200000D03*
X133985000Y-104140000D03*
X87630000Y-93345000D03*
D25*
X99187000Y-84455000D03*
X115570000Y-75565000D03*
X115570000Y-84455000D03*
X99695000Y-79248000D03*
X96393000Y-79248000D03*
X95504000Y-99949000D03*
X100584000Y-99949000D03*
D26*
X88265000Y-98425000D03*
D25*
X97420000Y-86950000D03*
X120420000Y-90950000D03*
X92075000Y-88900000D03*
X111887000Y-82550000D03*
X111887000Y-90170000D03*
X99695000Y-97155000D03*
X102489000Y-88138000D03*
X99314000Y-90424000D03*
X121285000Y-103505000D03*
X128270000Y-99060000D03*
X114300000Y-99060000D03*
X107315000Y-103505000D03*
X123825000Y-93980000D03*
X133985000Y-93980000D03*
X109220000Y-93980000D03*
D26*
X80645000Y-104140000D03*
D25*
X100965000Y-85725000D03*
X106680000Y-82550000D03*
X105410000Y-81280000D03*
D26*
X80645000Y-99060000D03*
X80645000Y-101600000D03*
D25*
X90170000Y-88900000D03*
X92075000Y-92075000D03*
D27*
X115570000Y-84455000D02*
X115570000Y-75565000D01*
D28*
X96393000Y-79248000D02*
X99695000Y-79248000D01*
X95504000Y-99949000D02*
X100584000Y-99949000D01*
X83185000Y-98980000D02*
X83185000Y-93980000D01*
X81915000Y-92710000D02*
X81915000Y-88265000D01*
X83185000Y-93980000D02*
X81915000Y-92710000D01*
D27*
X99695000Y-82792000D02*
X99695000Y-83947000D01*
X99695000Y-83947000D02*
X99187000Y-84455000D01*
D29*
X129425000Y-91440000D02*
X129425000Y-89015000D01*
X129425000Y-89015000D02*
X129425000Y-86995000D01*
X129425000Y-86995000D02*
X129540000Y-86880000D01*
X129540000Y-86880000D02*
X129540000Y-83300000D01*
X129540000Y-83300000D02*
X129540000Y-81280000D01*
X129540000Y-81280000D02*
X129425000Y-81165000D01*
X129425000Y-81165000D02*
X129425000Y-77585000D01*
X129425000Y-77585000D02*
X129540000Y-77470000D01*
D30*
X88265000Y-98425000D02*
X88265000Y-99580000D01*
D29*
X85725000Y-99330000D02*
X86630000Y-99330000D01*
X86880000Y-99580000D02*
X88265000Y-99580000D01*
X86630000Y-99330000D02*
X86880000Y-99580000D01*
D28*
X83185000Y-98980000D02*
X85625000Y-98980000D01*
X85625000Y-98980000D02*
X85725000Y-99080000D01*
D29*
X88265000Y-101080000D02*
X87515000Y-101080000D01*
X87265000Y-101330000D02*
X85725000Y-101330000D01*
X87515000Y-101080000D02*
X87265000Y-101330000D01*
D28*
X80645000Y-104140000D02*
X85090000Y-104140000D01*
X85725000Y-103505000D02*
X85725000Y-101580000D01*
X85090000Y-104140000D02*
X85725000Y-103505000D01*
X78820000Y-104120000D02*
X80625000Y-104120000D01*
X80625000Y-104120000D02*
X80645000Y-104140000D01*
X78820000Y-104120000D02*
X71100000Y-104120000D01*
X70410000Y-103430000D02*
X70410000Y-101600000D01*
X71100000Y-104120000D02*
X70410000Y-103430000D01*
X70381020Y-99060000D02*
X70381020Y-101571020D01*
D29*
X70381020Y-101571020D02*
X70410000Y-101600000D01*
D27*
X109367695Y-85237695D02*
X106680000Y-82550000D01*
X105410000Y-81280000D02*
X102722305Y-78592305D01*
D29*
X78740000Y-101600000D02*
X78820000Y-101600000D01*
X78820000Y-101600000D02*
X78740000Y-101600000D01*
X72660000Y-101600000D02*
X78820000Y-101600000D01*
X78820000Y-101600000D02*
X78820000Y-99060000D01*
X78820000Y-102120000D02*
X78820000Y-101600000D01*
D28*
X78820000Y-99060000D02*
X80645000Y-99060000D01*
X72380000Y-99060000D02*
X76120000Y-99060000D01*
X80725000Y-101680000D02*
X83185000Y-101680000D01*
X80645000Y-101600000D02*
X80725000Y-101680000D01*
D27*
X81915000Y-83185000D02*
X87630000Y-83185000D01*
X90170000Y-85725000D02*
X90170000Y-88900000D01*
X87630000Y-83185000D02*
X90170000Y-85725000D01*
X88900000Y-86360000D02*
X88900000Y-90170000D01*
X80645000Y-84455000D02*
X86995000Y-84455000D01*
X86995000Y-84455000D02*
X88900000Y-86360000D01*
X80645000Y-84455000D02*
X79375000Y-83185000D01*
X90805000Y-92075000D02*
X92075000Y-92075000D01*
X88900000Y-90170000D02*
X90805000Y-92075000D01*
D31*
G36*
X131335604Y-74426384D02*
X130858544Y-75575272D01*
X130857627Y-76625924D01*
X130594013Y-76231399D01*
X130110428Y-75908277D01*
X129540000Y-75794812D01*
X128969572Y-75908277D01*
X128485987Y-76231399D01*
X128278998Y-76541179D01*
X127902036Y-76119268D01*
X127374791Y-75865291D01*
X127359026Y-75862642D01*
X127127000Y-75983783D01*
X127127000Y-77343000D01*
X127147000Y-77343000D01*
X127147000Y-77597000D01*
X127127000Y-77597000D01*
X127127000Y-78956217D01*
X127359026Y-79077358D01*
X127374791Y-79074709D01*
X127902036Y-78820732D01*
X128278998Y-78398821D01*
X128423000Y-78614335D01*
X128423000Y-78815889D01*
X128385717Y-79000000D01*
X128385717Y-79750000D01*
X128423000Y-79948142D01*
X128423000Y-80135665D01*
X128278998Y-80351179D01*
X127902036Y-79929268D01*
X127374791Y-79675291D01*
X127359026Y-79672642D01*
X127127000Y-79793783D01*
X127127000Y-81153000D01*
X127147000Y-81153000D01*
X127147000Y-81407000D01*
X127127000Y-81407000D01*
X127127000Y-82766217D01*
X127359026Y-82887358D01*
X127374791Y-82884709D01*
X127902036Y-82630732D01*
X128278998Y-82208821D01*
X128475733Y-82503254D01*
X128436083Y-82561283D01*
X128385717Y-82810000D01*
X128385717Y-83560000D01*
X128429437Y-83792352D01*
X128476535Y-83865545D01*
X128278998Y-84161179D01*
X127902036Y-83739268D01*
X127374791Y-83485291D01*
X127359026Y-83482642D01*
X127127000Y-83603783D01*
X127127000Y-84963000D01*
X127147000Y-84963000D01*
X127147000Y-85217000D01*
X127127000Y-85217000D01*
X127127000Y-86576217D01*
X127359026Y-86697358D01*
X127374791Y-86694709D01*
X127902036Y-86440732D01*
X128278998Y-86018821D01*
X128475733Y-86313254D01*
X128436083Y-86371283D01*
X128385717Y-86620000D01*
X128385717Y-87370000D01*
X128423000Y-87568142D01*
X128423000Y-87755665D01*
X128278998Y-87971179D01*
X127902036Y-87549268D01*
X127374791Y-87295291D01*
X127359026Y-87292642D01*
X127127000Y-87413783D01*
X127127000Y-88773000D01*
X127147000Y-88773000D01*
X127147000Y-89027000D01*
X127127000Y-89027000D01*
X127127000Y-90386217D01*
X127359026Y-90507358D01*
X127374791Y-90504709D01*
X127902036Y-90250732D01*
X128278998Y-89828821D01*
X128423000Y-90044335D01*
X128423000Y-90880889D01*
X128385717Y-91065000D01*
X128385717Y-91815000D01*
X128429437Y-92047352D01*
X128566757Y-92260753D01*
X128776283Y-92403917D01*
X129025000Y-92454283D01*
X129825000Y-92454283D01*
X130057352Y-92410563D01*
X130157862Y-92345887D01*
X130165302Y-92353327D01*
X130398691Y-92450000D01*
X130639250Y-92450000D01*
X130798000Y-92291250D01*
X130798000Y-91567000D01*
X131052000Y-91567000D01*
X131052000Y-92291250D01*
X131210750Y-92450000D01*
X131451309Y-92450000D01*
X131684698Y-92353327D01*
X131863327Y-92174699D01*
X131960000Y-91941310D01*
X131960000Y-91725750D01*
X131801250Y-91567000D01*
X131052000Y-91567000D01*
X130798000Y-91567000D01*
X130778000Y-91567000D01*
X130778000Y-91313000D01*
X130798000Y-91313000D01*
X130798000Y-90588750D01*
X131052000Y-90588750D01*
X131052000Y-91313000D01*
X131801250Y-91313000D01*
X131960000Y-91154250D01*
X131960000Y-90938690D01*
X131863327Y-90705301D01*
X131684698Y-90526673D01*
X131451309Y-90430000D01*
X131210750Y-90430000D01*
X131052000Y-90588750D01*
X130798000Y-90588750D01*
X130639250Y-90430000D01*
X130427000Y-90430000D01*
X130427000Y-90250196D01*
X130594013Y-90138601D01*
X130917135Y-89655016D01*
X131030600Y-89084588D01*
X131030600Y-88715412D01*
X130917135Y-88144984D01*
X130749760Y-87894490D01*
X130798000Y-87846250D01*
X130798000Y-87122000D01*
X131052000Y-87122000D01*
X131052000Y-87846250D01*
X131210750Y-88005000D01*
X131451309Y-88005000D01*
X131684698Y-87908327D01*
X131863327Y-87729699D01*
X131960000Y-87496310D01*
X131960000Y-87280750D01*
X131801250Y-87122000D01*
X131052000Y-87122000D01*
X130798000Y-87122000D01*
X130778000Y-87122000D01*
X130778000Y-86868000D01*
X130798000Y-86868000D01*
X130798000Y-86143750D01*
X131052000Y-86143750D01*
X131052000Y-86868000D01*
X131801250Y-86868000D01*
X131960000Y-86709250D01*
X131960000Y-86493690D01*
X131863327Y-86260301D01*
X131684698Y-86081673D01*
X131451309Y-85985000D01*
X131210750Y-85985000D01*
X131052000Y-86143750D01*
X130798000Y-86143750D01*
X130749760Y-86095510D01*
X130917135Y-85845016D01*
X131030600Y-85274588D01*
X131030600Y-84905412D01*
X130917135Y-84334984D01*
X130749760Y-84084490D01*
X130798000Y-84036250D01*
X130798000Y-83312000D01*
X131052000Y-83312000D01*
X131052000Y-84036250D01*
X131210750Y-84195000D01*
X131451309Y-84195000D01*
X131684698Y-84098327D01*
X131863327Y-83919699D01*
X131960000Y-83686310D01*
X131960000Y-83470750D01*
X131801250Y-83312000D01*
X131052000Y-83312000D01*
X130798000Y-83312000D01*
X130778000Y-83312000D01*
X130778000Y-83058000D01*
X130798000Y-83058000D01*
X130798000Y-82333750D01*
X131052000Y-82333750D01*
X131052000Y-83058000D01*
X131801250Y-83058000D01*
X131960000Y-82899250D01*
X131960000Y-82683690D01*
X131863327Y-82450301D01*
X131684698Y-82271673D01*
X131451309Y-82175000D01*
X131210750Y-82175000D01*
X131052000Y-82333750D01*
X130798000Y-82333750D01*
X130749760Y-82285510D01*
X130917135Y-82035016D01*
X131030600Y-81464588D01*
X131030600Y-81095412D01*
X130917135Y-80524984D01*
X130749760Y-80274490D01*
X130798000Y-80226250D01*
X130798000Y-79502000D01*
X131052000Y-79502000D01*
X131052000Y-80226250D01*
X131210750Y-80385000D01*
X131451309Y-80385000D01*
X131684698Y-80288327D01*
X131863327Y-80109699D01*
X131960000Y-79876310D01*
X131960000Y-79660750D01*
X131801250Y-79502000D01*
X131052000Y-79502000D01*
X130798000Y-79502000D01*
X130778000Y-79502000D01*
X130778000Y-79248000D01*
X130798000Y-79248000D01*
X130798000Y-78523750D01*
X131052000Y-78523750D01*
X131052000Y-79248000D01*
X131801250Y-79248000D01*
X131960000Y-79089250D01*
X131960000Y-78873690D01*
X131863327Y-78640301D01*
X131684698Y-78461673D01*
X131451309Y-78365000D01*
X131210750Y-78365000D01*
X131052000Y-78523750D01*
X130798000Y-78523750D01*
X130749760Y-78475510D01*
X130917135Y-78225016D01*
X131030600Y-77654588D01*
X131030600Y-77285412D01*
X131012532Y-77194578D01*
X131332512Y-77968989D01*
X132211384Y-78849396D01*
X133360272Y-79326456D01*
X134604270Y-79327542D01*
X135753989Y-78852488D01*
X136293000Y-78314417D01*
X136293000Y-102025921D01*
X135758616Y-101490604D01*
X134609728Y-101013544D01*
X133365730Y-101012458D01*
X132216011Y-101487512D01*
X131335604Y-102366384D01*
X130858544Y-103515272D01*
X130857458Y-104759270D01*
X131332512Y-105908989D01*
X132211384Y-106789396D01*
X132292311Y-106823000D01*
X59547000Y-106823000D01*
X59547000Y-105195081D01*
X66455004Y-105195081D01*
X66596472Y-105498270D01*
X67332952Y-105783227D01*
X68122420Y-105764654D01*
X68765528Y-105498270D01*
X68906996Y-105195081D01*
X67681000Y-103969085D01*
X66455004Y-105195081D01*
X59547000Y-105195081D01*
X59547000Y-103441432D01*
X65687253Y-103441432D01*
X65705826Y-104230900D01*
X65972210Y-104874008D01*
X66275399Y-105015476D01*
X67501395Y-103789480D01*
X67860605Y-103789480D01*
X69086601Y-105015476D01*
X69389790Y-104874008D01*
X69674747Y-104137528D01*
X69669295Y-103905750D01*
X77810000Y-103905750D01*
X77810000Y-104146309D01*
X77906673Y-104379698D01*
X78085301Y-104558327D01*
X78318690Y-104655000D01*
X78534250Y-104655000D01*
X78693000Y-104496250D01*
X78693000Y-103747000D01*
X78947000Y-103747000D01*
X78947000Y-104496250D01*
X79105750Y-104655000D01*
X79321310Y-104655000D01*
X79554699Y-104558327D01*
X79733327Y-104379698D01*
X79830000Y-104146309D01*
X79830000Y-103905750D01*
X79671250Y-103747000D01*
X78947000Y-103747000D01*
X78693000Y-103747000D01*
X77968750Y-103747000D01*
X77810000Y-103905750D01*
X69669295Y-103905750D01*
X69656174Y-103348060D01*
X69389790Y-102704952D01*
X69086601Y-102563484D01*
X67860605Y-103789480D01*
X67501395Y-103789480D01*
X66275399Y-102563484D01*
X65972210Y-102704952D01*
X65687253Y-103441432D01*
X59547000Y-103441432D01*
X59547000Y-102383879D01*
X66455004Y-102383879D01*
X67681000Y-103609875D01*
X68906996Y-102383879D01*
X68765528Y-102080690D01*
X68261700Y-101885750D01*
X69525000Y-101885750D01*
X69525000Y-102351310D01*
X69621673Y-102584699D01*
X69800302Y-102763327D01*
X70033691Y-102860000D01*
X70374250Y-102860000D01*
X70533000Y-102701250D01*
X70533000Y-101727000D01*
X69683750Y-101727000D01*
X69525000Y-101885750D01*
X68261700Y-101885750D01*
X68029048Y-101795733D01*
X67239580Y-101814306D01*
X66596472Y-102080690D01*
X66455004Y-102383879D01*
X59547000Y-102383879D01*
X59547000Y-98852302D01*
X68971876Y-98852302D01*
X68999658Y-99407368D01*
X69158623Y-99791143D01*
X69400807Y-99860608D01*
X70201415Y-99060000D01*
X69400807Y-98259392D01*
X69158623Y-98328857D01*
X68971876Y-98852302D01*
X59547000Y-98852302D01*
X59547000Y-96795077D01*
X68991780Y-96795077D01*
X69202797Y-97305777D01*
X69593187Y-97696850D01*
X69791192Y-97779069D01*
X69649877Y-97837603D01*
X69580412Y-98079787D01*
X70381020Y-98880395D01*
X71181628Y-98079787D01*
X71112163Y-97837603D01*
X70960459Y-97783480D01*
X71166797Y-97698223D01*
X71380540Y-97484853D01*
X71592167Y-97696850D01*
X71816419Y-97789967D01*
X71594223Y-97881777D01*
X71203150Y-98272167D01*
X71099968Y-98520657D01*
X70560625Y-99060000D01*
X71099942Y-99599317D01*
X71201777Y-99845777D01*
X71592167Y-100236850D01*
X71933089Y-100378413D01*
X71927648Y-100379437D01*
X71714247Y-100516757D01*
X71667784Y-100584758D01*
X71519698Y-100436673D01*
X71286309Y-100340000D01*
X70973097Y-100340000D01*
X71112163Y-100282397D01*
X71181628Y-100040213D01*
X70381020Y-99239605D01*
X69580412Y-100040213D01*
X69649877Y-100282397D01*
X69930798Y-100382620D01*
X69800302Y-100436673D01*
X69621673Y-100615301D01*
X69525000Y-100848690D01*
X69525000Y-101314250D01*
X69683750Y-101473000D01*
X70533000Y-101473000D01*
X70533000Y-101453000D01*
X70787000Y-101453000D01*
X70787000Y-101473000D01*
X70807000Y-101473000D01*
X70807000Y-101727000D01*
X70787000Y-101727000D01*
X70787000Y-102701250D01*
X70945750Y-102860000D01*
X71286309Y-102860000D01*
X71519698Y-102763327D01*
X71666721Y-102616305D01*
X71701757Y-102670753D01*
X71911283Y-102813917D01*
X72160000Y-102864283D01*
X73160000Y-102864283D01*
X73392352Y-102820563D01*
X73537753Y-102727000D01*
X77844667Y-102727000D01*
X77849437Y-102752352D01*
X77914113Y-102852862D01*
X77906673Y-102860302D01*
X77810000Y-103093691D01*
X77810000Y-103334250D01*
X77968750Y-103493000D01*
X78693000Y-103493000D01*
X78693000Y-103473000D01*
X78947000Y-103473000D01*
X78947000Y-103493000D01*
X79671250Y-103493000D01*
X79830000Y-103334250D01*
X79830000Y-103093691D01*
X79733327Y-102860302D01*
X79726205Y-102853180D01*
X79783917Y-102768717D01*
X79834283Y-102520000D01*
X79834283Y-102376244D01*
X79848091Y-102396909D01*
X79928091Y-102476909D01*
X80293716Y-102721212D01*
X80725000Y-102807000D01*
X82032516Y-102807000D01*
X82076757Y-102875753D01*
X82286283Y-103018917D01*
X82535000Y-103069283D01*
X83835000Y-103069283D01*
X84067352Y-103025563D01*
X84280753Y-102888243D01*
X84423917Y-102678717D01*
X84474283Y-102430000D01*
X84474283Y-101978720D01*
X84561673Y-102189698D01*
X84740301Y-102368327D01*
X84973690Y-102465000D01*
X85439250Y-102465000D01*
X85598000Y-102306250D01*
X85598000Y-101457000D01*
X85852000Y-101457000D01*
X85852000Y-102306250D01*
X86010750Y-102465000D01*
X86476310Y-102465000D01*
X86709699Y-102368327D01*
X86888327Y-102189698D01*
X86985000Y-101956309D01*
X86985000Y-101615750D01*
X86826250Y-101457000D01*
X85852000Y-101457000D01*
X85598000Y-101457000D01*
X85578000Y-101457000D01*
X85578000Y-101365750D01*
X87255000Y-101365750D01*
X87255000Y-101606309D01*
X87351673Y-101839698D01*
X87530301Y-102018327D01*
X87763690Y-102115000D01*
X87979250Y-102115000D01*
X88138000Y-101956250D01*
X88138000Y-101207000D01*
X88392000Y-101207000D01*
X88392000Y-101956250D01*
X88550750Y-102115000D01*
X88766310Y-102115000D01*
X88999699Y-102018327D01*
X89164025Y-101854000D01*
X91207117Y-101854000D01*
X91207117Y-103886000D01*
X91250837Y-104118352D01*
X91388157Y-104331753D01*
X91597683Y-104474917D01*
X91846400Y-104525283D01*
X93573600Y-104525283D01*
X93805952Y-104481563D01*
X94019353Y-104344243D01*
X94162517Y-104134717D01*
X94182582Y-104035630D01*
X94347964Y-104220732D01*
X94875209Y-104474709D01*
X94890974Y-104477358D01*
X95123000Y-104356217D01*
X95123000Y-102997000D01*
X95103000Y-102997000D01*
X95103000Y-102743000D01*
X95123000Y-102743000D01*
X95123000Y-101383783D01*
X95377000Y-101383783D01*
X95377000Y-102743000D01*
X95397000Y-102743000D01*
X95397000Y-102997000D01*
X95377000Y-102997000D01*
X95377000Y-104356217D01*
X95609026Y-104477358D01*
X95624791Y-104474709D01*
X96152036Y-104220732D01*
X96528998Y-103798821D01*
X96735987Y-104108601D01*
X97219572Y-104431723D01*
X97790000Y-104545188D01*
X98360428Y-104431723D01*
X98844013Y-104108601D01*
X99060000Y-103785354D01*
X99275987Y-104108601D01*
X99759572Y-104431723D01*
X100330000Y-104545188D01*
X100900428Y-104431723D01*
X101384013Y-104108601D01*
X101707135Y-103625016D01*
X101820600Y-103054588D01*
X101820600Y-102685412D01*
X101707135Y-102114984D01*
X101384013Y-101631399D01*
X100900428Y-101308277D01*
X100330000Y-101194812D01*
X99759572Y-101308277D01*
X99275987Y-101631399D01*
X99060000Y-101954646D01*
X98844013Y-101631399D01*
X98360428Y-101308277D01*
X97790000Y-101194812D01*
X97219572Y-101308277D01*
X96735987Y-101631399D01*
X96528998Y-101941179D01*
X96152036Y-101519268D01*
X95624791Y-101265291D01*
X95609026Y-101262642D01*
X95377000Y-101383783D01*
X95123000Y-101383783D01*
X94890974Y-101262642D01*
X94875209Y-101265291D01*
X94347964Y-101519268D01*
X94184355Y-101702386D01*
X94169163Y-101621648D01*
X94031843Y-101408247D01*
X93822317Y-101265083D01*
X93573600Y-101214717D01*
X91846400Y-101214717D01*
X91614048Y-101258437D01*
X91400647Y-101395757D01*
X91257483Y-101605283D01*
X91207117Y-101854000D01*
X89164025Y-101854000D01*
X89178327Y-101839698D01*
X89275000Y-101606309D01*
X89275000Y-101365750D01*
X89116250Y-101207000D01*
X88392000Y-101207000D01*
X88138000Y-101207000D01*
X87413750Y-101207000D01*
X87255000Y-101365750D01*
X85578000Y-101365750D01*
X85578000Y-101203000D01*
X85598000Y-101203000D01*
X85598000Y-101183000D01*
X85852000Y-101183000D01*
X85852000Y-101203000D01*
X86826250Y-101203000D01*
X86985000Y-101044250D01*
X86985000Y-100703691D01*
X86934594Y-100582000D01*
X87255000Y-100582000D01*
X87255000Y-100794250D01*
X87413750Y-100953000D01*
X88138000Y-100953000D01*
X88138000Y-100933000D01*
X88392000Y-100933000D01*
X88392000Y-100953000D01*
X89116250Y-100953000D01*
X89275000Y-100794250D01*
X89275000Y-100553691D01*
X89178327Y-100320302D01*
X89171205Y-100313180D01*
X89228917Y-100228717D01*
X89240363Y-100172191D01*
X94376805Y-100172191D01*
X94548019Y-100586560D01*
X94864772Y-100903867D01*
X95278842Y-101075804D01*
X95727191Y-101076195D01*
X95727663Y-101076000D01*
X100583590Y-101076000D01*
X100807191Y-101076195D01*
X101221560Y-100904981D01*
X101538867Y-100588228D01*
X101710804Y-100174158D01*
X101711195Y-99725809D01*
X101539981Y-99311440D01*
X101223228Y-98994133D01*
X100809158Y-98822196D01*
X100360809Y-98821805D01*
X100360337Y-98822000D01*
X95504410Y-98822000D01*
X95280809Y-98821805D01*
X94866440Y-98993019D01*
X94549133Y-99309772D01*
X94377196Y-99723842D01*
X94376805Y-100172191D01*
X89240363Y-100172191D01*
X89279283Y-99980000D01*
X89279283Y-99180000D01*
X89235563Y-98947648D01*
X89222540Y-98927410D01*
X89341813Y-98640168D01*
X89342187Y-98211711D01*
X89178569Y-97815725D01*
X88875868Y-97512496D01*
X88480168Y-97348187D01*
X88051711Y-97347813D01*
X87655725Y-97511431D01*
X87352496Y-97814132D01*
X87188187Y-98209832D01*
X87187916Y-98520848D01*
X87082969Y-98450725D01*
X87013449Y-98404273D01*
X86765316Y-98354916D01*
X86598717Y-98241083D01*
X86449731Y-98210913D01*
X86421909Y-98183091D01*
X86056284Y-97938788D01*
X85625000Y-97853000D01*
X84337484Y-97853000D01*
X84312000Y-97813396D01*
X84312000Y-93980000D01*
X84226212Y-93548716D01*
X83981909Y-93183090D01*
X83042000Y-92243182D01*
X83042000Y-89704184D01*
X83224353Y-89586843D01*
X83367517Y-89377317D01*
X83417883Y-89128600D01*
X83417883Y-87401400D01*
X83374163Y-87169048D01*
X83236843Y-86955647D01*
X83027317Y-86812483D01*
X82966543Y-86800176D01*
X82998216Y-86779013D01*
X83321338Y-86295428D01*
X83434803Y-85725000D01*
X83331767Y-85207000D01*
X86683512Y-85207000D01*
X88148000Y-86671488D01*
X88148000Y-90170000D01*
X88157639Y-90218459D01*
X87010730Y-90217458D01*
X85861011Y-90692512D01*
X84980604Y-91571384D01*
X84503544Y-92720272D01*
X84502458Y-93964270D01*
X84977512Y-95113989D01*
X85856384Y-95994396D01*
X87005272Y-96471456D01*
X88249270Y-96472542D01*
X89398989Y-95997488D01*
X90279396Y-95118616D01*
X90756456Y-93969728D01*
X90757462Y-92817544D01*
X90805000Y-92827000D01*
X91233259Y-92827000D01*
X91435772Y-93029867D01*
X91849842Y-93201804D01*
X92298191Y-93202195D01*
X92712560Y-93030981D01*
X93029867Y-92714228D01*
X93201804Y-92300158D01*
X93202195Y-91851809D01*
X93030981Y-91437440D01*
X92714228Y-91120133D01*
X92300158Y-90948196D01*
X91851809Y-90947805D01*
X91437440Y-91119019D01*
X91233102Y-91323000D01*
X91116488Y-91323000D01*
X89731850Y-89938362D01*
X89944842Y-90026804D01*
X90393191Y-90027195D01*
X90807560Y-89855981D01*
X91124867Y-89539228D01*
X91296804Y-89125158D01*
X91297195Y-88676809D01*
X91125981Y-88262440D01*
X90922000Y-88058102D01*
X90922000Y-85725000D01*
X90864757Y-85437222D01*
X90846479Y-85409867D01*
X90701744Y-85193255D01*
X90186680Y-84678191D01*
X98059805Y-84678191D01*
X98231019Y-85092560D01*
X98547772Y-85409867D01*
X98961842Y-85581804D01*
X99410191Y-85582195D01*
X99824560Y-85410981D01*
X100141867Y-85094228D01*
X100313804Y-84680158D01*
X100314094Y-84348017D01*
X100389757Y-84234778D01*
X100416899Y-84098327D01*
X100447000Y-83947000D01*
X100447000Y-83694484D01*
X100515753Y-83650243D01*
X100658917Y-83440717D01*
X100709283Y-83192000D01*
X100709283Y-82392000D01*
X100665563Y-82159648D01*
X100600887Y-82059138D01*
X100608327Y-82051698D01*
X100705000Y-81818309D01*
X100705000Y-81577750D01*
X100546250Y-81419000D01*
X99822000Y-81419000D01*
X99822000Y-81439000D01*
X99568000Y-81439000D01*
X99568000Y-81419000D01*
X98843750Y-81419000D01*
X98685000Y-81577750D01*
X98685000Y-81818309D01*
X98781673Y-82051698D01*
X98788795Y-82058820D01*
X98731083Y-82143283D01*
X98680717Y-82392000D01*
X98680717Y-83192000D01*
X98724437Y-83424352D01*
X98725636Y-83426216D01*
X98549440Y-83499019D01*
X98232133Y-83815772D01*
X98060196Y-84229842D01*
X98059805Y-84678191D01*
X90186680Y-84678191D01*
X88161744Y-82653256D01*
X87917778Y-82490243D01*
X87630000Y-82433000D01*
X83200015Y-82433000D01*
X82998216Y-82130987D01*
X82674969Y-81915000D01*
X82998216Y-81699013D01*
X83321338Y-81215428D01*
X83434803Y-80645000D01*
X83321338Y-80074572D01*
X82998216Y-79590987D01*
X82818929Y-79471191D01*
X95265805Y-79471191D01*
X95437019Y-79885560D01*
X95753772Y-80202867D01*
X96167842Y-80374804D01*
X96616191Y-80375195D01*
X96616663Y-80375000D01*
X98938974Y-80375000D01*
X98781673Y-80532302D01*
X98685000Y-80765691D01*
X98685000Y-81006250D01*
X98843750Y-81165000D01*
X99568000Y-81165000D01*
X99568000Y-81145000D01*
X99822000Y-81145000D01*
X99822000Y-81165000D01*
X100546250Y-81165000D01*
X100705000Y-81006250D01*
X100705000Y-80765691D01*
X100608327Y-80532302D01*
X100429699Y-80353673D01*
X100200272Y-80258641D01*
X100332560Y-80203981D01*
X100649867Y-79887228D01*
X100821804Y-79473158D01*
X100822195Y-79024809D01*
X100811606Y-78999181D01*
X103507743Y-81695318D01*
X103702955Y-81828701D01*
X103950952Y-81882499D01*
X104200341Y-81835573D01*
X104372866Y-81721155D01*
X104454019Y-81917560D01*
X104770772Y-82234867D01*
X105184842Y-82406804D01*
X105553124Y-82407125D01*
X105552805Y-82773191D01*
X105724019Y-83187560D01*
X106040772Y-83504867D01*
X106238246Y-83586865D01*
X106131299Y-83743387D01*
X106077501Y-83991384D01*
X106124427Y-84240773D01*
X106264682Y-84452257D01*
X110153133Y-88340708D01*
X110348345Y-88474091D01*
X110596342Y-88527889D01*
X110845731Y-88480963D01*
X111057215Y-88340708D01*
X111513923Y-87884000D01*
X122957117Y-87884000D01*
X122957117Y-89916000D01*
X123000837Y-90148352D01*
X123138157Y-90361753D01*
X123347683Y-90504917D01*
X123596400Y-90555283D01*
X125323600Y-90555283D01*
X125555952Y-90511563D01*
X125769353Y-90374243D01*
X125912517Y-90164717D01*
X125932582Y-90065630D01*
X126097964Y-90250732D01*
X126625209Y-90504709D01*
X126640974Y-90507358D01*
X126873000Y-90386217D01*
X126873000Y-89027000D01*
X126853000Y-89027000D01*
X126853000Y-88773000D01*
X126873000Y-88773000D01*
X126873000Y-87413783D01*
X126640974Y-87292642D01*
X126625209Y-87295291D01*
X126097964Y-87549268D01*
X125934355Y-87732386D01*
X125919163Y-87651648D01*
X125781843Y-87438247D01*
X125572317Y-87295083D01*
X125323600Y-87244717D01*
X123596400Y-87244717D01*
X123364048Y-87288437D01*
X123150647Y-87425757D01*
X123007483Y-87635283D01*
X122957117Y-87884000D01*
X111513923Y-87884000D01*
X112470708Y-86927215D01*
X112604091Y-86732003D01*
X112657889Y-86484006D01*
X112610963Y-86234617D01*
X112470708Y-86023133D01*
X108582257Y-82134682D01*
X108387045Y-82001299D01*
X108139048Y-81947501D01*
X107889659Y-81994427D01*
X107717134Y-82108845D01*
X107635981Y-81912440D01*
X107319228Y-81595133D01*
X106905158Y-81423196D01*
X106536876Y-81422875D01*
X106537195Y-81056809D01*
X106365981Y-80642440D01*
X106049228Y-80325133D01*
X105851754Y-80243135D01*
X105958701Y-80086613D01*
X106012499Y-79838616D01*
X105965573Y-79589227D01*
X105825318Y-79377743D01*
X102235766Y-75788191D01*
X114442805Y-75788191D01*
X114614019Y-76202560D01*
X114818000Y-76406898D01*
X114818000Y-83613259D01*
X114615133Y-83815772D01*
X114443196Y-84229842D01*
X114442805Y-84678191D01*
X114614019Y-85092560D01*
X114930772Y-85409867D01*
X115344842Y-85581804D01*
X115793191Y-85582195D01*
X116207560Y-85410981D01*
X116524867Y-85094228D01*
X116696804Y-84680158D01*
X116697195Y-84231809D01*
X116631990Y-84074000D01*
X122957117Y-84074000D01*
X122957117Y-86106000D01*
X123000837Y-86338352D01*
X123138157Y-86551753D01*
X123347683Y-86694917D01*
X123596400Y-86745283D01*
X125323600Y-86745283D01*
X125555952Y-86701563D01*
X125769353Y-86564243D01*
X125912517Y-86354717D01*
X125932582Y-86255630D01*
X126097964Y-86440732D01*
X126625209Y-86694709D01*
X126640974Y-86697358D01*
X126873000Y-86576217D01*
X126873000Y-85217000D01*
X126853000Y-85217000D01*
X126853000Y-84963000D01*
X126873000Y-84963000D01*
X126873000Y-83603783D01*
X126640974Y-83482642D01*
X126625209Y-83485291D01*
X126097964Y-83739268D01*
X125934355Y-83922386D01*
X125919163Y-83841648D01*
X125781843Y-83628247D01*
X125572317Y-83485083D01*
X125323600Y-83434717D01*
X123596400Y-83434717D01*
X123364048Y-83478437D01*
X123150647Y-83615757D01*
X123007483Y-83825283D01*
X122957117Y-84074000D01*
X116631990Y-84074000D01*
X116525981Y-83817440D01*
X116322000Y-83613102D01*
X116322000Y-80264000D01*
X122957117Y-80264000D01*
X122957117Y-82296000D01*
X123000837Y-82528352D01*
X123138157Y-82741753D01*
X123347683Y-82884917D01*
X123596400Y-82935283D01*
X125323600Y-82935283D01*
X125555952Y-82891563D01*
X125769353Y-82754243D01*
X125912517Y-82544717D01*
X125932582Y-82445630D01*
X126097964Y-82630732D01*
X126625209Y-82884709D01*
X126640974Y-82887358D01*
X126873000Y-82766217D01*
X126873000Y-81407000D01*
X126853000Y-81407000D01*
X126853000Y-81153000D01*
X126873000Y-81153000D01*
X126873000Y-79793783D01*
X126640974Y-79672642D01*
X126625209Y-79675291D01*
X126097964Y-79929268D01*
X125934355Y-80112386D01*
X125919163Y-80031648D01*
X125781843Y-79818247D01*
X125572317Y-79675083D01*
X125323600Y-79624717D01*
X123596400Y-79624717D01*
X123364048Y-79668437D01*
X123150647Y-79805757D01*
X123007483Y-80015283D01*
X122957117Y-80264000D01*
X116322000Y-80264000D01*
X116322000Y-76454000D01*
X122957117Y-76454000D01*
X122957117Y-78486000D01*
X123000837Y-78718352D01*
X123138157Y-78931753D01*
X123347683Y-79074917D01*
X123596400Y-79125283D01*
X125323600Y-79125283D01*
X125555952Y-79081563D01*
X125769353Y-78944243D01*
X125912517Y-78734717D01*
X125932582Y-78635630D01*
X126097964Y-78820732D01*
X126625209Y-79074709D01*
X126640974Y-79077358D01*
X126873000Y-78956217D01*
X126873000Y-77597000D01*
X126853000Y-77597000D01*
X126853000Y-77343000D01*
X126873000Y-77343000D01*
X126873000Y-75983783D01*
X126640974Y-75862642D01*
X126625209Y-75865291D01*
X126097964Y-76119268D01*
X125934355Y-76302386D01*
X125919163Y-76221648D01*
X125781843Y-76008247D01*
X125572317Y-75865083D01*
X125323600Y-75814717D01*
X123596400Y-75814717D01*
X123364048Y-75858437D01*
X123150647Y-75995757D01*
X123007483Y-76205283D01*
X122957117Y-76454000D01*
X116322000Y-76454000D01*
X116322000Y-76406741D01*
X116524867Y-76204228D01*
X116696804Y-75790158D01*
X116697195Y-75341809D01*
X116525981Y-74927440D01*
X116209228Y-74610133D01*
X115795158Y-74438196D01*
X115346809Y-74437805D01*
X114932440Y-74609019D01*
X114615133Y-74925772D01*
X114443196Y-75339842D01*
X114442805Y-75788191D01*
X102235766Y-75788191D01*
X101936867Y-75489292D01*
X101741655Y-75355909D01*
X101493658Y-75302111D01*
X101244269Y-75349037D01*
X101032785Y-75489292D01*
X99619292Y-76902785D01*
X99485909Y-77097997D01*
X99432111Y-77345994D01*
X99479037Y-77595383D01*
X99619292Y-77806867D01*
X99943181Y-78130756D01*
X99920158Y-78121196D01*
X99471809Y-78120805D01*
X99471337Y-78121000D01*
X96393410Y-78121000D01*
X96169809Y-78120805D01*
X95755440Y-78292019D01*
X95438133Y-78608772D01*
X95266196Y-79022842D01*
X95265805Y-79471191D01*
X82818929Y-79471191D01*
X82674969Y-79375000D01*
X82998216Y-79159013D01*
X83321338Y-78675428D01*
X83434803Y-78105000D01*
X83321338Y-77534572D01*
X82998216Y-77050987D01*
X82514631Y-76727865D01*
X81944203Y-76614400D01*
X81885797Y-76614400D01*
X81315369Y-76727865D01*
X80831784Y-77050987D01*
X80645000Y-77330528D01*
X80458216Y-77050987D01*
X79974631Y-76727865D01*
X79404203Y-76614400D01*
X79345797Y-76614400D01*
X78775369Y-76727865D01*
X78291784Y-77050987D01*
X77968662Y-77534572D01*
X77855197Y-78105000D01*
X77968662Y-78675428D01*
X78291784Y-79159013D01*
X78615031Y-79375000D01*
X78291784Y-79590987D01*
X77968662Y-80074572D01*
X77855197Y-80645000D01*
X77968662Y-81215428D01*
X78291784Y-81699013D01*
X78615031Y-81915000D01*
X78291784Y-82130987D01*
X77968662Y-82614572D01*
X77855197Y-83185000D01*
X77968662Y-83755428D01*
X78291784Y-84239013D01*
X78615031Y-84455000D01*
X78291784Y-84670987D01*
X77968662Y-85154572D01*
X77855197Y-85725000D01*
X77968662Y-86295428D01*
X78291784Y-86779013D01*
X78617621Y-86996731D01*
X78486510Y-87058179D01*
X78092312Y-87490053D01*
X77920042Y-87905974D01*
X78041183Y-88138000D01*
X79248000Y-88138000D01*
X79248000Y-88118000D01*
X79502000Y-88118000D01*
X79502000Y-88138000D01*
X79522000Y-88138000D01*
X79522000Y-88392000D01*
X79502000Y-88392000D01*
X79502000Y-89599469D01*
X79734027Y-89719968D01*
X80263490Y-89471821D01*
X80440258Y-89278158D01*
X80455837Y-89360952D01*
X80593157Y-89574353D01*
X80788000Y-89707484D01*
X80788000Y-92710000D01*
X80873788Y-93141284D01*
X81118091Y-93506909D01*
X82058000Y-94446819D01*
X82058000Y-97817488D01*
X81946083Y-97981283D01*
X81895717Y-98230000D01*
X81895717Y-99730000D01*
X81939437Y-99962352D01*
X82076757Y-100175753D01*
X82286283Y-100318917D01*
X82333892Y-100328558D01*
X82302648Y-100334437D01*
X82089247Y-100471757D01*
X82033736Y-100553000D01*
X81047186Y-100553000D01*
X80645000Y-100473000D01*
X80213716Y-100558788D01*
X79947000Y-100737002D01*
X79947000Y-100212484D01*
X79986604Y-100187000D01*
X80645000Y-100187000D01*
X81076284Y-100101212D01*
X81441909Y-99856909D01*
X81686212Y-99491284D01*
X81772000Y-99060000D01*
X81686212Y-98628716D01*
X81441909Y-98263091D01*
X81076284Y-98018788D01*
X80645000Y-97933000D01*
X79982512Y-97933000D01*
X79818717Y-97821083D01*
X79570000Y-97770717D01*
X78070000Y-97770717D01*
X77837648Y-97814437D01*
X77624247Y-97951757D01*
X77481083Y-98161283D01*
X77471442Y-98208892D01*
X77465563Y-98177648D01*
X77328243Y-97964247D01*
X77118717Y-97821083D01*
X76870000Y-97770717D01*
X75370000Y-97770717D01*
X75137648Y-97814437D01*
X74953396Y-97933000D01*
X73217596Y-97933000D01*
X73167833Y-97883150D01*
X72943581Y-97790033D01*
X73165777Y-97698223D01*
X73556850Y-97307833D01*
X73768758Y-96797501D01*
X73769240Y-96244923D01*
X73558223Y-95734223D01*
X73167833Y-95343150D01*
X72657501Y-95131242D01*
X72104923Y-95130760D01*
X71594223Y-95341777D01*
X71380480Y-95555147D01*
X71168853Y-95343150D01*
X70658521Y-95131242D01*
X70105943Y-95130760D01*
X69595243Y-95341777D01*
X69204170Y-95732167D01*
X68992262Y-96242499D01*
X68991780Y-96795077D01*
X59547000Y-96795077D01*
X59547000Y-93196121D01*
X66455004Y-93196121D01*
X66596472Y-93499310D01*
X67332952Y-93784267D01*
X68122420Y-93765694D01*
X68765528Y-93499310D01*
X68906996Y-93196121D01*
X67681000Y-91970125D01*
X66455004Y-93196121D01*
X59547000Y-93196121D01*
X59547000Y-91442472D01*
X65687253Y-91442472D01*
X65705826Y-92231940D01*
X65972210Y-92875048D01*
X66275399Y-93016516D01*
X67501395Y-91790520D01*
X67860605Y-91790520D01*
X69086601Y-93016516D01*
X69389790Y-92875048D01*
X69674747Y-92138568D01*
X69656174Y-91349100D01*
X69389790Y-90705992D01*
X69086601Y-90564524D01*
X67860605Y-91790520D01*
X67501395Y-91790520D01*
X66275399Y-90564524D01*
X65972210Y-90705992D01*
X65687253Y-91442472D01*
X59547000Y-91442472D01*
X59547000Y-90384919D01*
X66455004Y-90384919D01*
X67681000Y-91610915D01*
X68906996Y-90384919D01*
X68765528Y-90081730D01*
X68029048Y-89796773D01*
X67239580Y-89815346D01*
X66596472Y-90081730D01*
X66455004Y-90384919D01*
X59547000Y-90384919D01*
X59547000Y-88624026D01*
X77920042Y-88624026D01*
X78092312Y-89039947D01*
X78486510Y-89471821D01*
X79015973Y-89719968D01*
X79248000Y-89599469D01*
X79248000Y-88392000D01*
X78041183Y-88392000D01*
X77920042Y-88624026D01*
X59547000Y-88624026D01*
X59547000Y-78530144D01*
X59577512Y-78603989D01*
X60456384Y-79484396D01*
X61605272Y-79961456D01*
X62849270Y-79962542D01*
X63998989Y-79487488D01*
X64879396Y-78608616D01*
X65356456Y-77459728D01*
X65357542Y-76215730D01*
X64882488Y-75066011D01*
X64003616Y-74185604D01*
X63742069Y-74077000D01*
X131685598Y-74077000D01*
X131335604Y-74426384D01*
X131335604Y-74426384D01*
G37*
X131335604Y-74426384D02*
X130858544Y-75575272D01*
X130857627Y-76625924D01*
X130594013Y-76231399D01*
X130110428Y-75908277D01*
X129540000Y-75794812D01*
X128969572Y-75908277D01*
X128485987Y-76231399D01*
X128278998Y-76541179D01*
X127902036Y-76119268D01*
X127374791Y-75865291D01*
X127359026Y-75862642D01*
X127127000Y-75983783D01*
X127127000Y-77343000D01*
X127147000Y-77343000D01*
X127147000Y-77597000D01*
X127127000Y-77597000D01*
X127127000Y-78956217D01*
X127359026Y-79077358D01*
X127374791Y-79074709D01*
X127902036Y-78820732D01*
X128278998Y-78398821D01*
X128423000Y-78614335D01*
X128423000Y-78815889D01*
X128385717Y-79000000D01*
X128385717Y-79750000D01*
X128423000Y-79948142D01*
X128423000Y-80135665D01*
X128278998Y-80351179D01*
X127902036Y-79929268D01*
X127374791Y-79675291D01*
X127359026Y-79672642D01*
X127127000Y-79793783D01*
X127127000Y-81153000D01*
X127147000Y-81153000D01*
X127147000Y-81407000D01*
X127127000Y-81407000D01*
X127127000Y-82766217D01*
X127359026Y-82887358D01*
X127374791Y-82884709D01*
X127902036Y-82630732D01*
X128278998Y-82208821D01*
X128475733Y-82503254D01*
X128436083Y-82561283D01*
X128385717Y-82810000D01*
X128385717Y-83560000D01*
X128429437Y-83792352D01*
X128476535Y-83865545D01*
X128278998Y-84161179D01*
X127902036Y-83739268D01*
X127374791Y-83485291D01*
X127359026Y-83482642D01*
X127127000Y-83603783D01*
X127127000Y-84963000D01*
X127147000Y-84963000D01*
X127147000Y-85217000D01*
X127127000Y-85217000D01*
X127127000Y-86576217D01*
X127359026Y-86697358D01*
X127374791Y-86694709D01*
X127902036Y-86440732D01*
X128278998Y-86018821D01*
X128475733Y-86313254D01*
X128436083Y-86371283D01*
X128385717Y-86620000D01*
X128385717Y-87370000D01*
X128423000Y-87568142D01*
X128423000Y-87755665D01*
X128278998Y-87971179D01*
X127902036Y-87549268D01*
X127374791Y-87295291D01*
X127359026Y-87292642D01*
X127127000Y-87413783D01*
X127127000Y-88773000D01*
X127147000Y-88773000D01*
X127147000Y-89027000D01*
X127127000Y-89027000D01*
X127127000Y-90386217D01*
X127359026Y-90507358D01*
X127374791Y-90504709D01*
X127902036Y-90250732D01*
X128278998Y-89828821D01*
X128423000Y-90044335D01*
X128423000Y-90880889D01*
X128385717Y-91065000D01*
X128385717Y-91815000D01*
X128429437Y-92047352D01*
X128566757Y-92260753D01*
X128776283Y-92403917D01*
X129025000Y-92454283D01*
X129825000Y-92454283D01*
X130057352Y-92410563D01*
X130157862Y-92345887D01*
X130165302Y-92353327D01*
X130398691Y-92450000D01*
X130639250Y-92450000D01*
X130798000Y-92291250D01*
X130798000Y-91567000D01*
X131052000Y-91567000D01*
X131052000Y-92291250D01*
X131210750Y-92450000D01*
X131451309Y-92450000D01*
X131684698Y-92353327D01*
X131863327Y-92174699D01*
X131960000Y-91941310D01*
X131960000Y-91725750D01*
X131801250Y-91567000D01*
X131052000Y-91567000D01*
X130798000Y-91567000D01*
X130778000Y-91567000D01*
X130778000Y-91313000D01*
X130798000Y-91313000D01*
X130798000Y-90588750D01*
X131052000Y-90588750D01*
X131052000Y-91313000D01*
X131801250Y-91313000D01*
X131960000Y-91154250D01*
X131960000Y-90938690D01*
X131863327Y-90705301D01*
X131684698Y-90526673D01*
X131451309Y-90430000D01*
X131210750Y-90430000D01*
X131052000Y-90588750D01*
X130798000Y-90588750D01*
X130639250Y-90430000D01*
X130427000Y-90430000D01*
X130427000Y-90250196D01*
X130594013Y-90138601D01*
X130917135Y-89655016D01*
X131030600Y-89084588D01*
X131030600Y-88715412D01*
X130917135Y-88144984D01*
X130749760Y-87894490D01*
X130798000Y-87846250D01*
X130798000Y-87122000D01*
X131052000Y-87122000D01*
X131052000Y-87846250D01*
X131210750Y-88005000D01*
X131451309Y-88005000D01*
X131684698Y-87908327D01*
X131863327Y-87729699D01*
X131960000Y-87496310D01*
X131960000Y-87280750D01*
X131801250Y-87122000D01*
X131052000Y-87122000D01*
X130798000Y-87122000D01*
X130778000Y-87122000D01*
X130778000Y-86868000D01*
X130798000Y-86868000D01*
X130798000Y-86143750D01*
X131052000Y-86143750D01*
X131052000Y-86868000D01*
X131801250Y-86868000D01*
X131960000Y-86709250D01*
X131960000Y-86493690D01*
X131863327Y-86260301D01*
X131684698Y-86081673D01*
X131451309Y-85985000D01*
X131210750Y-85985000D01*
X131052000Y-86143750D01*
X130798000Y-86143750D01*
X130749760Y-86095510D01*
X130917135Y-85845016D01*
X131030600Y-85274588D01*
X131030600Y-84905412D01*
X130917135Y-84334984D01*
X130749760Y-84084490D01*
X130798000Y-84036250D01*
X130798000Y-83312000D01*
X131052000Y-83312000D01*
X131052000Y-84036250D01*
X131210750Y-84195000D01*
X131451309Y-84195000D01*
X131684698Y-84098327D01*
X131863327Y-83919699D01*
X131960000Y-83686310D01*
X131960000Y-83470750D01*
X131801250Y-83312000D01*
X131052000Y-83312000D01*
X130798000Y-83312000D01*
X130778000Y-83312000D01*
X130778000Y-83058000D01*
X130798000Y-83058000D01*
X130798000Y-82333750D01*
X131052000Y-82333750D01*
X131052000Y-83058000D01*
X131801250Y-83058000D01*
X131960000Y-82899250D01*
X131960000Y-82683690D01*
X131863327Y-82450301D01*
X131684698Y-82271673D01*
X131451309Y-82175000D01*
X131210750Y-82175000D01*
X131052000Y-82333750D01*
X130798000Y-82333750D01*
X130749760Y-82285510D01*
X130917135Y-82035016D01*
X131030600Y-81464588D01*
X131030600Y-81095412D01*
X130917135Y-80524984D01*
X130749760Y-80274490D01*
X130798000Y-80226250D01*
X130798000Y-79502000D01*
X131052000Y-79502000D01*
X131052000Y-80226250D01*
X131210750Y-80385000D01*
X131451309Y-80385000D01*
X131684698Y-80288327D01*
X131863327Y-80109699D01*
X131960000Y-79876310D01*
X131960000Y-79660750D01*
X131801250Y-79502000D01*
X131052000Y-79502000D01*
X130798000Y-79502000D01*
X130778000Y-79502000D01*
X130778000Y-79248000D01*
X130798000Y-79248000D01*
X130798000Y-78523750D01*
X131052000Y-78523750D01*
X131052000Y-79248000D01*
X131801250Y-79248000D01*
X131960000Y-79089250D01*
X131960000Y-78873690D01*
X131863327Y-78640301D01*
X131684698Y-78461673D01*
X131451309Y-78365000D01*
X131210750Y-78365000D01*
X131052000Y-78523750D01*
X130798000Y-78523750D01*
X130749760Y-78475510D01*
X130917135Y-78225016D01*
X131030600Y-77654588D01*
X131030600Y-77285412D01*
X131012532Y-77194578D01*
X131332512Y-77968989D01*
X132211384Y-78849396D01*
X133360272Y-79326456D01*
X134604270Y-79327542D01*
X135753989Y-78852488D01*
X136293000Y-78314417D01*
X136293000Y-102025921D01*
X135758616Y-101490604D01*
X134609728Y-101013544D01*
X133365730Y-101012458D01*
X132216011Y-101487512D01*
X131335604Y-102366384D01*
X130858544Y-103515272D01*
X130857458Y-104759270D01*
X131332512Y-105908989D01*
X132211384Y-106789396D01*
X132292311Y-106823000D01*
X59547000Y-106823000D01*
X59547000Y-105195081D01*
X66455004Y-105195081D01*
X66596472Y-105498270D01*
X67332952Y-105783227D01*
X68122420Y-105764654D01*
X68765528Y-105498270D01*
X68906996Y-105195081D01*
X67681000Y-103969085D01*
X66455004Y-105195081D01*
X59547000Y-105195081D01*
X59547000Y-103441432D01*
X65687253Y-103441432D01*
X65705826Y-104230900D01*
X65972210Y-104874008D01*
X66275399Y-105015476D01*
X67501395Y-103789480D01*
X67860605Y-103789480D01*
X69086601Y-105015476D01*
X69389790Y-104874008D01*
X69674747Y-104137528D01*
X69669295Y-103905750D01*
X77810000Y-103905750D01*
X77810000Y-104146309D01*
X77906673Y-104379698D01*
X78085301Y-104558327D01*
X78318690Y-104655000D01*
X78534250Y-104655000D01*
X78693000Y-104496250D01*
X78693000Y-103747000D01*
X78947000Y-103747000D01*
X78947000Y-104496250D01*
X79105750Y-104655000D01*
X79321310Y-104655000D01*
X79554699Y-104558327D01*
X79733327Y-104379698D01*
X79830000Y-104146309D01*
X79830000Y-103905750D01*
X79671250Y-103747000D01*
X78947000Y-103747000D01*
X78693000Y-103747000D01*
X77968750Y-103747000D01*
X77810000Y-103905750D01*
X69669295Y-103905750D01*
X69656174Y-103348060D01*
X69389790Y-102704952D01*
X69086601Y-102563484D01*
X67860605Y-103789480D01*
X67501395Y-103789480D01*
X66275399Y-102563484D01*
X65972210Y-102704952D01*
X65687253Y-103441432D01*
X59547000Y-103441432D01*
X59547000Y-102383879D01*
X66455004Y-102383879D01*
X67681000Y-103609875D01*
X68906996Y-102383879D01*
X68765528Y-102080690D01*
X68261700Y-101885750D01*
X69525000Y-101885750D01*
X69525000Y-102351310D01*
X69621673Y-102584699D01*
X69800302Y-102763327D01*
X70033691Y-102860000D01*
X70374250Y-102860000D01*
X70533000Y-102701250D01*
X70533000Y-101727000D01*
X69683750Y-101727000D01*
X69525000Y-101885750D01*
X68261700Y-101885750D01*
X68029048Y-101795733D01*
X67239580Y-101814306D01*
X66596472Y-102080690D01*
X66455004Y-102383879D01*
X59547000Y-102383879D01*
X59547000Y-98852302D01*
X68971876Y-98852302D01*
X68999658Y-99407368D01*
X69158623Y-99791143D01*
X69400807Y-99860608D01*
X70201415Y-99060000D01*
X69400807Y-98259392D01*
X69158623Y-98328857D01*
X68971876Y-98852302D01*
X59547000Y-98852302D01*
X59547000Y-96795077D01*
X68991780Y-96795077D01*
X69202797Y-97305777D01*
X69593187Y-97696850D01*
X69791192Y-97779069D01*
X69649877Y-97837603D01*
X69580412Y-98079787D01*
X70381020Y-98880395D01*
X71181628Y-98079787D01*
X71112163Y-97837603D01*
X70960459Y-97783480D01*
X71166797Y-97698223D01*
X71380540Y-97484853D01*
X71592167Y-97696850D01*
X71816419Y-97789967D01*
X71594223Y-97881777D01*
X71203150Y-98272167D01*
X71099968Y-98520657D01*
X70560625Y-99060000D01*
X71099942Y-99599317D01*
X71201777Y-99845777D01*
X71592167Y-100236850D01*
X71933089Y-100378413D01*
X71927648Y-100379437D01*
X71714247Y-100516757D01*
X71667784Y-100584758D01*
X71519698Y-100436673D01*
X71286309Y-100340000D01*
X70973097Y-100340000D01*
X71112163Y-100282397D01*
X71181628Y-100040213D01*
X70381020Y-99239605D01*
X69580412Y-100040213D01*
X69649877Y-100282397D01*
X69930798Y-100382620D01*
X69800302Y-100436673D01*
X69621673Y-100615301D01*
X69525000Y-100848690D01*
X69525000Y-101314250D01*
X69683750Y-101473000D01*
X70533000Y-101473000D01*
X70533000Y-101453000D01*
X70787000Y-101453000D01*
X70787000Y-101473000D01*
X70807000Y-101473000D01*
X70807000Y-101727000D01*
X70787000Y-101727000D01*
X70787000Y-102701250D01*
X70945750Y-102860000D01*
X71286309Y-102860000D01*
X71519698Y-102763327D01*
X71666721Y-102616305D01*
X71701757Y-102670753D01*
X71911283Y-102813917D01*
X72160000Y-102864283D01*
X73160000Y-102864283D01*
X73392352Y-102820563D01*
X73537753Y-102727000D01*
X77844667Y-102727000D01*
X77849437Y-102752352D01*
X77914113Y-102852862D01*
X77906673Y-102860302D01*
X77810000Y-103093691D01*
X77810000Y-103334250D01*
X77968750Y-103493000D01*
X78693000Y-103493000D01*
X78693000Y-103473000D01*
X78947000Y-103473000D01*
X78947000Y-103493000D01*
X79671250Y-103493000D01*
X79830000Y-103334250D01*
X79830000Y-103093691D01*
X79733327Y-102860302D01*
X79726205Y-102853180D01*
X79783917Y-102768717D01*
X79834283Y-102520000D01*
X79834283Y-102376244D01*
X79848091Y-102396909D01*
X79928091Y-102476909D01*
X80293716Y-102721212D01*
X80725000Y-102807000D01*
X82032516Y-102807000D01*
X82076757Y-102875753D01*
X82286283Y-103018917D01*
X82535000Y-103069283D01*
X83835000Y-103069283D01*
X84067352Y-103025563D01*
X84280753Y-102888243D01*
X84423917Y-102678717D01*
X84474283Y-102430000D01*
X84474283Y-101978720D01*
X84561673Y-102189698D01*
X84740301Y-102368327D01*
X84973690Y-102465000D01*
X85439250Y-102465000D01*
X85598000Y-102306250D01*
X85598000Y-101457000D01*
X85852000Y-101457000D01*
X85852000Y-102306250D01*
X86010750Y-102465000D01*
X86476310Y-102465000D01*
X86709699Y-102368327D01*
X86888327Y-102189698D01*
X86985000Y-101956309D01*
X86985000Y-101615750D01*
X86826250Y-101457000D01*
X85852000Y-101457000D01*
X85598000Y-101457000D01*
X85578000Y-101457000D01*
X85578000Y-101365750D01*
X87255000Y-101365750D01*
X87255000Y-101606309D01*
X87351673Y-101839698D01*
X87530301Y-102018327D01*
X87763690Y-102115000D01*
X87979250Y-102115000D01*
X88138000Y-101956250D01*
X88138000Y-101207000D01*
X88392000Y-101207000D01*
X88392000Y-101956250D01*
X88550750Y-102115000D01*
X88766310Y-102115000D01*
X88999699Y-102018327D01*
X89164025Y-101854000D01*
X91207117Y-101854000D01*
X91207117Y-103886000D01*
X91250837Y-104118352D01*
X91388157Y-104331753D01*
X91597683Y-104474917D01*
X91846400Y-104525283D01*
X93573600Y-104525283D01*
X93805952Y-104481563D01*
X94019353Y-104344243D01*
X94162517Y-104134717D01*
X94182582Y-104035630D01*
X94347964Y-104220732D01*
X94875209Y-104474709D01*
X94890974Y-104477358D01*
X95123000Y-104356217D01*
X95123000Y-102997000D01*
X95103000Y-102997000D01*
X95103000Y-102743000D01*
X95123000Y-102743000D01*
X95123000Y-101383783D01*
X95377000Y-101383783D01*
X95377000Y-102743000D01*
X95397000Y-102743000D01*
X95397000Y-102997000D01*
X95377000Y-102997000D01*
X95377000Y-104356217D01*
X95609026Y-104477358D01*
X95624791Y-104474709D01*
X96152036Y-104220732D01*
X96528998Y-103798821D01*
X96735987Y-104108601D01*
X97219572Y-104431723D01*
X97790000Y-104545188D01*
X98360428Y-104431723D01*
X98844013Y-104108601D01*
X99060000Y-103785354D01*
X99275987Y-104108601D01*
X99759572Y-104431723D01*
X100330000Y-104545188D01*
X100900428Y-104431723D01*
X101384013Y-104108601D01*
X101707135Y-103625016D01*
X101820600Y-103054588D01*
X101820600Y-102685412D01*
X101707135Y-102114984D01*
X101384013Y-101631399D01*
X100900428Y-101308277D01*
X100330000Y-101194812D01*
X99759572Y-101308277D01*
X99275987Y-101631399D01*
X99060000Y-101954646D01*
X98844013Y-101631399D01*
X98360428Y-101308277D01*
X97790000Y-101194812D01*
X97219572Y-101308277D01*
X96735987Y-101631399D01*
X96528998Y-101941179D01*
X96152036Y-101519268D01*
X95624791Y-101265291D01*
X95609026Y-101262642D01*
X95377000Y-101383783D01*
X95123000Y-101383783D01*
X94890974Y-101262642D01*
X94875209Y-101265291D01*
X94347964Y-101519268D01*
X94184355Y-101702386D01*
X94169163Y-101621648D01*
X94031843Y-101408247D01*
X93822317Y-101265083D01*
X93573600Y-101214717D01*
X91846400Y-101214717D01*
X91614048Y-101258437D01*
X91400647Y-101395757D01*
X91257483Y-101605283D01*
X91207117Y-101854000D01*
X89164025Y-101854000D01*
X89178327Y-101839698D01*
X89275000Y-101606309D01*
X89275000Y-101365750D01*
X89116250Y-101207000D01*
X88392000Y-101207000D01*
X88138000Y-101207000D01*
X87413750Y-101207000D01*
X87255000Y-101365750D01*
X85578000Y-101365750D01*
X85578000Y-101203000D01*
X85598000Y-101203000D01*
X85598000Y-101183000D01*
X85852000Y-101183000D01*
X85852000Y-101203000D01*
X86826250Y-101203000D01*
X86985000Y-101044250D01*
X86985000Y-100703691D01*
X86934594Y-100582000D01*
X87255000Y-100582000D01*
X87255000Y-100794250D01*
X87413750Y-100953000D01*
X88138000Y-100953000D01*
X88138000Y-100933000D01*
X88392000Y-100933000D01*
X88392000Y-100953000D01*
X89116250Y-100953000D01*
X89275000Y-100794250D01*
X89275000Y-100553691D01*
X89178327Y-100320302D01*
X89171205Y-100313180D01*
X89228917Y-100228717D01*
X89240363Y-100172191D01*
X94376805Y-100172191D01*
X94548019Y-100586560D01*
X94864772Y-100903867D01*
X95278842Y-101075804D01*
X95727191Y-101076195D01*
X95727663Y-101076000D01*
X100583590Y-101076000D01*
X100807191Y-101076195D01*
X101221560Y-100904981D01*
X101538867Y-100588228D01*
X101710804Y-100174158D01*
X101711195Y-99725809D01*
X101539981Y-99311440D01*
X101223228Y-98994133D01*
X100809158Y-98822196D01*
X100360809Y-98821805D01*
X100360337Y-98822000D01*
X95504410Y-98822000D01*
X95280809Y-98821805D01*
X94866440Y-98993019D01*
X94549133Y-99309772D01*
X94377196Y-99723842D01*
X94376805Y-100172191D01*
X89240363Y-100172191D01*
X89279283Y-99980000D01*
X89279283Y-99180000D01*
X89235563Y-98947648D01*
X89222540Y-98927410D01*
X89341813Y-98640168D01*
X89342187Y-98211711D01*
X89178569Y-97815725D01*
X88875868Y-97512496D01*
X88480168Y-97348187D01*
X88051711Y-97347813D01*
X87655725Y-97511431D01*
X87352496Y-97814132D01*
X87188187Y-98209832D01*
X87187916Y-98520848D01*
X87082969Y-98450725D01*
X87013449Y-98404273D01*
X86765316Y-98354916D01*
X86598717Y-98241083D01*
X86449731Y-98210913D01*
X86421909Y-98183091D01*
X86056284Y-97938788D01*
X85625000Y-97853000D01*
X84337484Y-97853000D01*
X84312000Y-97813396D01*
X84312000Y-93980000D01*
X84226212Y-93548716D01*
X83981909Y-93183090D01*
X83042000Y-92243182D01*
X83042000Y-89704184D01*
X83224353Y-89586843D01*
X83367517Y-89377317D01*
X83417883Y-89128600D01*
X83417883Y-87401400D01*
X83374163Y-87169048D01*
X83236843Y-86955647D01*
X83027317Y-86812483D01*
X82966543Y-86800176D01*
X82998216Y-86779013D01*
X83321338Y-86295428D01*
X83434803Y-85725000D01*
X83331767Y-85207000D01*
X86683512Y-85207000D01*
X88148000Y-86671488D01*
X88148000Y-90170000D01*
X88157639Y-90218459D01*
X87010730Y-90217458D01*
X85861011Y-90692512D01*
X84980604Y-91571384D01*
X84503544Y-92720272D01*
X84502458Y-93964270D01*
X84977512Y-95113989D01*
X85856384Y-95994396D01*
X87005272Y-96471456D01*
X88249270Y-96472542D01*
X89398989Y-95997488D01*
X90279396Y-95118616D01*
X90756456Y-93969728D01*
X90757462Y-92817544D01*
X90805000Y-92827000D01*
X91233259Y-92827000D01*
X91435772Y-93029867D01*
X91849842Y-93201804D01*
X92298191Y-93202195D01*
X92712560Y-93030981D01*
X93029867Y-92714228D01*
X93201804Y-92300158D01*
X93202195Y-91851809D01*
X93030981Y-91437440D01*
X92714228Y-91120133D01*
X92300158Y-90948196D01*
X91851809Y-90947805D01*
X91437440Y-91119019D01*
X91233102Y-91323000D01*
X91116488Y-91323000D01*
X89731850Y-89938362D01*
X89944842Y-90026804D01*
X90393191Y-90027195D01*
X90807560Y-89855981D01*
X91124867Y-89539228D01*
X91296804Y-89125158D01*
X91297195Y-88676809D01*
X91125981Y-88262440D01*
X90922000Y-88058102D01*
X90922000Y-85725000D01*
X90864757Y-85437222D01*
X90846479Y-85409867D01*
X90701744Y-85193255D01*
X90186680Y-84678191D01*
X98059805Y-84678191D01*
X98231019Y-85092560D01*
X98547772Y-85409867D01*
X98961842Y-85581804D01*
X99410191Y-85582195D01*
X99824560Y-85410981D01*
X100141867Y-85094228D01*
X100313804Y-84680158D01*
X100314094Y-84348017D01*
X100389757Y-84234778D01*
X100416899Y-84098327D01*
X100447000Y-83947000D01*
X100447000Y-83694484D01*
X100515753Y-83650243D01*
X100658917Y-83440717D01*
X100709283Y-83192000D01*
X100709283Y-82392000D01*
X100665563Y-82159648D01*
X100600887Y-82059138D01*
X100608327Y-82051698D01*
X100705000Y-81818309D01*
X100705000Y-81577750D01*
X100546250Y-81419000D01*
X99822000Y-81419000D01*
X99822000Y-81439000D01*
X99568000Y-81439000D01*
X99568000Y-81419000D01*
X98843750Y-81419000D01*
X98685000Y-81577750D01*
X98685000Y-81818309D01*
X98781673Y-82051698D01*
X98788795Y-82058820D01*
X98731083Y-82143283D01*
X98680717Y-82392000D01*
X98680717Y-83192000D01*
X98724437Y-83424352D01*
X98725636Y-83426216D01*
X98549440Y-83499019D01*
X98232133Y-83815772D01*
X98060196Y-84229842D01*
X98059805Y-84678191D01*
X90186680Y-84678191D01*
X88161744Y-82653256D01*
X87917778Y-82490243D01*
X87630000Y-82433000D01*
X83200015Y-82433000D01*
X82998216Y-82130987D01*
X82674969Y-81915000D01*
X82998216Y-81699013D01*
X83321338Y-81215428D01*
X83434803Y-80645000D01*
X83321338Y-80074572D01*
X82998216Y-79590987D01*
X82818929Y-79471191D01*
X95265805Y-79471191D01*
X95437019Y-79885560D01*
X95753772Y-80202867D01*
X96167842Y-80374804D01*
X96616191Y-80375195D01*
X96616663Y-80375000D01*
X98938974Y-80375000D01*
X98781673Y-80532302D01*
X98685000Y-80765691D01*
X98685000Y-81006250D01*
X98843750Y-81165000D01*
X99568000Y-81165000D01*
X99568000Y-81145000D01*
X99822000Y-81145000D01*
X99822000Y-81165000D01*
X100546250Y-81165000D01*
X100705000Y-81006250D01*
X100705000Y-80765691D01*
X100608327Y-80532302D01*
X100429699Y-80353673D01*
X100200272Y-80258641D01*
X100332560Y-80203981D01*
X100649867Y-79887228D01*
X100821804Y-79473158D01*
X100822195Y-79024809D01*
X100811606Y-78999181D01*
X103507743Y-81695318D01*
X103702955Y-81828701D01*
X103950952Y-81882499D01*
X104200341Y-81835573D01*
X104372866Y-81721155D01*
X104454019Y-81917560D01*
X104770772Y-82234867D01*
X105184842Y-82406804D01*
X105553124Y-82407125D01*
X105552805Y-82773191D01*
X105724019Y-83187560D01*
X106040772Y-83504867D01*
X106238246Y-83586865D01*
X106131299Y-83743387D01*
X106077501Y-83991384D01*
X106124427Y-84240773D01*
X106264682Y-84452257D01*
X110153133Y-88340708D01*
X110348345Y-88474091D01*
X110596342Y-88527889D01*
X110845731Y-88480963D01*
X111057215Y-88340708D01*
X111513923Y-87884000D01*
X122957117Y-87884000D01*
X122957117Y-89916000D01*
X123000837Y-90148352D01*
X123138157Y-90361753D01*
X123347683Y-90504917D01*
X123596400Y-90555283D01*
X125323600Y-90555283D01*
X125555952Y-90511563D01*
X125769353Y-90374243D01*
X125912517Y-90164717D01*
X125932582Y-90065630D01*
X126097964Y-90250732D01*
X126625209Y-90504709D01*
X126640974Y-90507358D01*
X126873000Y-90386217D01*
X126873000Y-89027000D01*
X126853000Y-89027000D01*
X126853000Y-88773000D01*
X126873000Y-88773000D01*
X126873000Y-87413783D01*
X126640974Y-87292642D01*
X126625209Y-87295291D01*
X126097964Y-87549268D01*
X125934355Y-87732386D01*
X125919163Y-87651648D01*
X125781843Y-87438247D01*
X125572317Y-87295083D01*
X125323600Y-87244717D01*
X123596400Y-87244717D01*
X123364048Y-87288437D01*
X123150647Y-87425757D01*
X123007483Y-87635283D01*
X122957117Y-87884000D01*
X111513923Y-87884000D01*
X112470708Y-86927215D01*
X112604091Y-86732003D01*
X112657889Y-86484006D01*
X112610963Y-86234617D01*
X112470708Y-86023133D01*
X108582257Y-82134682D01*
X108387045Y-82001299D01*
X108139048Y-81947501D01*
X107889659Y-81994427D01*
X107717134Y-82108845D01*
X107635981Y-81912440D01*
X107319228Y-81595133D01*
X106905158Y-81423196D01*
X106536876Y-81422875D01*
X106537195Y-81056809D01*
X106365981Y-80642440D01*
X106049228Y-80325133D01*
X105851754Y-80243135D01*
X105958701Y-80086613D01*
X106012499Y-79838616D01*
X105965573Y-79589227D01*
X105825318Y-79377743D01*
X102235766Y-75788191D01*
X114442805Y-75788191D01*
X114614019Y-76202560D01*
X114818000Y-76406898D01*
X114818000Y-83613259D01*
X114615133Y-83815772D01*
X114443196Y-84229842D01*
X114442805Y-84678191D01*
X114614019Y-85092560D01*
X114930772Y-85409867D01*
X115344842Y-85581804D01*
X115793191Y-85582195D01*
X116207560Y-85410981D01*
X116524867Y-85094228D01*
X116696804Y-84680158D01*
X116697195Y-84231809D01*
X116631990Y-84074000D01*
X122957117Y-84074000D01*
X122957117Y-86106000D01*
X123000837Y-86338352D01*
X123138157Y-86551753D01*
X123347683Y-86694917D01*
X123596400Y-86745283D01*
X125323600Y-86745283D01*
X125555952Y-86701563D01*
X125769353Y-86564243D01*
X125912517Y-86354717D01*
X125932582Y-86255630D01*
X126097964Y-86440732D01*
X126625209Y-86694709D01*
X126640974Y-86697358D01*
X126873000Y-86576217D01*
X126873000Y-85217000D01*
X126853000Y-85217000D01*
X126853000Y-84963000D01*
X126873000Y-84963000D01*
X126873000Y-83603783D01*
X126640974Y-83482642D01*
X126625209Y-83485291D01*
X126097964Y-83739268D01*
X125934355Y-83922386D01*
X125919163Y-83841648D01*
X125781843Y-83628247D01*
X125572317Y-83485083D01*
X125323600Y-83434717D01*
X123596400Y-83434717D01*
X123364048Y-83478437D01*
X123150647Y-83615757D01*
X123007483Y-83825283D01*
X122957117Y-84074000D01*
X116631990Y-84074000D01*
X116525981Y-83817440D01*
X116322000Y-83613102D01*
X116322000Y-80264000D01*
X122957117Y-80264000D01*
X122957117Y-82296000D01*
X123000837Y-82528352D01*
X123138157Y-82741753D01*
X123347683Y-82884917D01*
X123596400Y-82935283D01*
X125323600Y-82935283D01*
X125555952Y-82891563D01*
X125769353Y-82754243D01*
X125912517Y-82544717D01*
X125932582Y-82445630D01*
X126097964Y-82630732D01*
X126625209Y-82884709D01*
X126640974Y-82887358D01*
X126873000Y-82766217D01*
X126873000Y-81407000D01*
X126853000Y-81407000D01*
X126853000Y-81153000D01*
X126873000Y-81153000D01*
X126873000Y-79793783D01*
X126640974Y-79672642D01*
X126625209Y-79675291D01*
X126097964Y-79929268D01*
X125934355Y-80112386D01*
X125919163Y-80031648D01*
X125781843Y-79818247D01*
X125572317Y-79675083D01*
X125323600Y-79624717D01*
X123596400Y-79624717D01*
X123364048Y-79668437D01*
X123150647Y-79805757D01*
X123007483Y-80015283D01*
X122957117Y-80264000D01*
X116322000Y-80264000D01*
X116322000Y-76454000D01*
X122957117Y-76454000D01*
X122957117Y-78486000D01*
X123000837Y-78718352D01*
X123138157Y-78931753D01*
X123347683Y-79074917D01*
X123596400Y-79125283D01*
X125323600Y-79125283D01*
X125555952Y-79081563D01*
X125769353Y-78944243D01*
X125912517Y-78734717D01*
X125932582Y-78635630D01*
X126097964Y-78820732D01*
X126625209Y-79074709D01*
X126640974Y-79077358D01*
X126873000Y-78956217D01*
X126873000Y-77597000D01*
X126853000Y-77597000D01*
X126853000Y-77343000D01*
X126873000Y-77343000D01*
X126873000Y-75983783D01*
X126640974Y-75862642D01*
X126625209Y-75865291D01*
X126097964Y-76119268D01*
X125934355Y-76302386D01*
X125919163Y-76221648D01*
X125781843Y-76008247D01*
X125572317Y-75865083D01*
X125323600Y-75814717D01*
X123596400Y-75814717D01*
X123364048Y-75858437D01*
X123150647Y-75995757D01*
X123007483Y-76205283D01*
X122957117Y-76454000D01*
X116322000Y-76454000D01*
X116322000Y-76406741D01*
X116524867Y-76204228D01*
X116696804Y-75790158D01*
X116697195Y-75341809D01*
X116525981Y-74927440D01*
X116209228Y-74610133D01*
X115795158Y-74438196D01*
X115346809Y-74437805D01*
X114932440Y-74609019D01*
X114615133Y-74925772D01*
X114443196Y-75339842D01*
X114442805Y-75788191D01*
X102235766Y-75788191D01*
X101936867Y-75489292D01*
X101741655Y-75355909D01*
X101493658Y-75302111D01*
X101244269Y-75349037D01*
X101032785Y-75489292D01*
X99619292Y-76902785D01*
X99485909Y-77097997D01*
X99432111Y-77345994D01*
X99479037Y-77595383D01*
X99619292Y-77806867D01*
X99943181Y-78130756D01*
X99920158Y-78121196D01*
X99471809Y-78120805D01*
X99471337Y-78121000D01*
X96393410Y-78121000D01*
X96169809Y-78120805D01*
X95755440Y-78292019D01*
X95438133Y-78608772D01*
X95266196Y-79022842D01*
X95265805Y-79471191D01*
X82818929Y-79471191D01*
X82674969Y-79375000D01*
X82998216Y-79159013D01*
X83321338Y-78675428D01*
X83434803Y-78105000D01*
X83321338Y-77534572D01*
X82998216Y-77050987D01*
X82514631Y-76727865D01*
X81944203Y-76614400D01*
X81885797Y-76614400D01*
X81315369Y-76727865D01*
X80831784Y-77050987D01*
X80645000Y-77330528D01*
X80458216Y-77050987D01*
X79974631Y-76727865D01*
X79404203Y-76614400D01*
X79345797Y-76614400D01*
X78775369Y-76727865D01*
X78291784Y-77050987D01*
X77968662Y-77534572D01*
X77855197Y-78105000D01*
X77968662Y-78675428D01*
X78291784Y-79159013D01*
X78615031Y-79375000D01*
X78291784Y-79590987D01*
X77968662Y-80074572D01*
X77855197Y-80645000D01*
X77968662Y-81215428D01*
X78291784Y-81699013D01*
X78615031Y-81915000D01*
X78291784Y-82130987D01*
X77968662Y-82614572D01*
X77855197Y-83185000D01*
X77968662Y-83755428D01*
X78291784Y-84239013D01*
X78615031Y-84455000D01*
X78291784Y-84670987D01*
X77968662Y-85154572D01*
X77855197Y-85725000D01*
X77968662Y-86295428D01*
X78291784Y-86779013D01*
X78617621Y-86996731D01*
X78486510Y-87058179D01*
X78092312Y-87490053D01*
X77920042Y-87905974D01*
X78041183Y-88138000D01*
X79248000Y-88138000D01*
X79248000Y-88118000D01*
X79502000Y-88118000D01*
X79502000Y-88138000D01*
X79522000Y-88138000D01*
X79522000Y-88392000D01*
X79502000Y-88392000D01*
X79502000Y-89599469D01*
X79734027Y-89719968D01*
X80263490Y-89471821D01*
X80440258Y-89278158D01*
X80455837Y-89360952D01*
X80593157Y-89574353D01*
X80788000Y-89707484D01*
X80788000Y-92710000D01*
X80873788Y-93141284D01*
X81118091Y-93506909D01*
X82058000Y-94446819D01*
X82058000Y-97817488D01*
X81946083Y-97981283D01*
X81895717Y-98230000D01*
X81895717Y-99730000D01*
X81939437Y-99962352D01*
X82076757Y-100175753D01*
X82286283Y-100318917D01*
X82333892Y-100328558D01*
X82302648Y-100334437D01*
X82089247Y-100471757D01*
X82033736Y-100553000D01*
X81047186Y-100553000D01*
X80645000Y-100473000D01*
X80213716Y-100558788D01*
X79947000Y-100737002D01*
X79947000Y-100212484D01*
X79986604Y-100187000D01*
X80645000Y-100187000D01*
X81076284Y-100101212D01*
X81441909Y-99856909D01*
X81686212Y-99491284D01*
X81772000Y-99060000D01*
X81686212Y-98628716D01*
X81441909Y-98263091D01*
X81076284Y-98018788D01*
X80645000Y-97933000D01*
X79982512Y-97933000D01*
X79818717Y-97821083D01*
X79570000Y-97770717D01*
X78070000Y-97770717D01*
X77837648Y-97814437D01*
X77624247Y-97951757D01*
X77481083Y-98161283D01*
X77471442Y-98208892D01*
X77465563Y-98177648D01*
X77328243Y-97964247D01*
X77118717Y-97821083D01*
X76870000Y-97770717D01*
X75370000Y-97770717D01*
X75137648Y-97814437D01*
X74953396Y-97933000D01*
X73217596Y-97933000D01*
X73167833Y-97883150D01*
X72943581Y-97790033D01*
X73165777Y-97698223D01*
X73556850Y-97307833D01*
X73768758Y-96797501D01*
X73769240Y-96244923D01*
X73558223Y-95734223D01*
X73167833Y-95343150D01*
X72657501Y-95131242D01*
X72104923Y-95130760D01*
X71594223Y-95341777D01*
X71380480Y-95555147D01*
X71168853Y-95343150D01*
X70658521Y-95131242D01*
X70105943Y-95130760D01*
X69595243Y-95341777D01*
X69204170Y-95732167D01*
X68992262Y-96242499D01*
X68991780Y-96795077D01*
X59547000Y-96795077D01*
X59547000Y-93196121D01*
X66455004Y-93196121D01*
X66596472Y-93499310D01*
X67332952Y-93784267D01*
X68122420Y-93765694D01*
X68765528Y-93499310D01*
X68906996Y-93196121D01*
X67681000Y-91970125D01*
X66455004Y-93196121D01*
X59547000Y-93196121D01*
X59547000Y-91442472D01*
X65687253Y-91442472D01*
X65705826Y-92231940D01*
X65972210Y-92875048D01*
X66275399Y-93016516D01*
X67501395Y-91790520D01*
X67860605Y-91790520D01*
X69086601Y-93016516D01*
X69389790Y-92875048D01*
X69674747Y-92138568D01*
X69656174Y-91349100D01*
X69389790Y-90705992D01*
X69086601Y-90564524D01*
X67860605Y-91790520D01*
X67501395Y-91790520D01*
X66275399Y-90564524D01*
X65972210Y-90705992D01*
X65687253Y-91442472D01*
X59547000Y-91442472D01*
X59547000Y-90384919D01*
X66455004Y-90384919D01*
X67681000Y-91610915D01*
X68906996Y-90384919D01*
X68765528Y-90081730D01*
X68029048Y-89796773D01*
X67239580Y-89815346D01*
X66596472Y-90081730D01*
X66455004Y-90384919D01*
X59547000Y-90384919D01*
X59547000Y-88624026D01*
X77920042Y-88624026D01*
X78092312Y-89039947D01*
X78486510Y-89471821D01*
X79015973Y-89719968D01*
X79248000Y-89599469D01*
X79248000Y-88392000D01*
X78041183Y-88392000D01*
X77920042Y-88624026D01*
X59547000Y-88624026D01*
X59547000Y-78530144D01*
X59577512Y-78603989D01*
X60456384Y-79484396D01*
X61605272Y-79961456D01*
X62849270Y-79962542D01*
X63998989Y-79487488D01*
X64879396Y-78608616D01*
X65356456Y-77459728D01*
X65357542Y-76215730D01*
X64882488Y-75066011D01*
X64003616Y-74185604D01*
X63742069Y-74077000D01*
X131685598Y-74077000D01*
X131335604Y-74426384D01*
M02*
