M48
;DRILL file {KiCad 4.0.0-rc1-stable} date 01.11.2015 14:42:32
;FORMAT={2:4/ absolute / inch / keep zeros}
FMAT,2
INCH,TZ
T1C0.020
T2C0.032
T3C0.040
T4C0.091
T5C0.118
%
G90
G05
M72
T1
X031750Y-039000
X031750Y-040000
X031750Y-041000
X034750Y-038750
X035500Y-035000
X036250Y-035000
X036250Y-036250
X037600Y-039350
X037950Y-031200
X038354Y-034232
X039050Y-033250
X039100Y-035600
X039250Y-031200
X039250Y-038250
X039600Y-039350
X039750Y-033750
X040350Y-034700
X041500Y-032000
X042000Y-032500
X042250Y-040750
X043000Y-037000
X044050Y-032500
X044050Y-035500
X045000Y-039000
X045500Y-029750
X045500Y-033250
X047409Y-035807
X047750Y-040750
X048750Y-037000
X050500Y-039000
X052750Y-037000
T2
X027709Y-038000
X027709Y-039000
X028496Y-038000
X028496Y-039000
T3
X031250Y-030750
X031250Y-031750
X031250Y-032750
X031250Y-033750
X031250Y-034750
X032250Y-030750
X032250Y-031750
X032250Y-032750
X032250Y-033750
X032250Y-034750
X036500Y-040500
X037500Y-040500
X038500Y-040500
X039500Y-040500
X049000Y-030500
X049000Y-032000
X049000Y-033500
X049000Y-035000
X050000Y-030500
X050000Y-032000
X050000Y-033500
X050000Y-035000
X051000Y-030500
X051000Y-032000
X051000Y-033500
X051000Y-035000
T4
X026646Y-036138
X026646Y-040862
T5
X024500Y-030250
X034500Y-036750
X052750Y-030000
X052750Y-041000
T0
M30
